<svg width="610" height="486" viewBox="0 0 610 486" fill="none" xmlns="http://www.w3.org/2000/svg">
<g clip-path="url(#clip0_12_241)">
<path opacity="0.48" d="M318.754 81.8877H35.8207C31.8532 81.8877 28.637 85.1063 28.637 89.0766V265.264C28.637 269.234 31.8532 272.453 35.8207 272.453H318.754C322.721 272.453 325.937 269.234 325.937 265.264V89.0766C325.937 85.1063 322.721 81.8877 318.754 81.8877Z" fill="#7253C6"/>
<path opacity="0.18" d="M320.054 286.365C319.837 292.606 318.409 298.959 314.917 304.132C310.519 310.646 303.375 314.678 296.456 318.47L276.839 329.273C268.243 334.012 259.181 338.863 249.381 339C242.446 339.104 235.736 336.815 229.066 334.896C197.915 325.899 165.103 324.638 132.901 326.912C116.406 328.076 99.9923 330.124 83.6504 332.59C70.5753 334.534 54.8835 341 43.0926 333.345C30.2503 324.992 22.3683 311.465 15.1124 298.333C8.79552 286.935 2.3904 275.256 0.303516 262.396C-2.90707 242.525 4.78229 222.115 16.814 205.97C20.4323 201.148 24.3829 196.586 28.637 192.315V265.272C28.6369 267.182 29.3925 269.015 30.7386 270.37C32.0846 271.724 33.9117 272.49 35.8206 272.501H318.746C319.753 277.05 320.192 281.707 320.054 286.365Z" fill="#7253C6"/>
<path opacity="0.18" d="M214.345 81.8957H138.696C141.543 79.7292 144.636 77.9067 147.91 76.4659C153.89 73.8554 160.407 72.6908 166.909 72.2249C183.267 71.0442 199.673 74.6587 214.345 81.8957Z" fill="#7253C6"/>
<path d="M145.125 248.469C145.862 249.446 146.748 250.303 147.75 251.007C149.239 251.811 150.879 252.298 152.566 252.436L178.186 256.3C178.441 256.317 178.687 256.4 178.9 256.541C179.043 256.695 179.15 256.879 179.215 257.078C179.28 257.278 179.301 257.489 179.278 257.698C179.397 262.498 178.749 267.287 177.359 271.883C177.286 272.258 177.105 272.605 176.838 272.879C176.492 273.113 176.083 273.236 175.666 273.232C167.045 273.963 158.385 273.73 149.74 273.497C148.287 273.518 146.836 273.358 145.422 273.023C143.014 272.348 141.048 270.702 139.234 269.007C135.341 265.384 119.585 250.822 118.63 248.846C117.363 246.015 116.343 243.081 115.58 240.075C114.777 237.183 120.644 236.822 120.524 233.818C120.439 231.74 120.689 229.663 121.262 227.665C121.689 225.883 122.575 224.244 123.831 222.91C124.714 222.107 123.349 216.661 124.569 216.597C125.982 221.416 132.371 231.055 135.148 235.183C138.235 239.786 141.565 244.221 145.125 248.469Z" fill="#7253C6"/>
<path d="M145.125 248.469C145.862 249.446 146.748 250.303 147.75 251.007C149.239 251.811 150.879 252.298 152.566 252.436L178.186 256.3C178.441 256.317 178.687 256.4 178.9 256.541C179.043 256.695 179.15 256.879 179.215 257.078C179.28 257.278 179.301 257.489 179.278 257.698C179.397 262.498 178.749 267.287 177.359 271.883C177.286 272.258 177.105 272.605 176.838 272.879C176.492 273.113 176.083 273.236 175.666 273.232C167.045 273.963 158.385 273.73 149.74 273.497C148.287 273.518 146.836 273.358 145.422 273.023C143.014 272.348 141.048 270.702 139.234 269.007C135.341 265.384 119.585 250.822 118.63 248.846C117.363 246.015 116.343 243.081 115.58 240.075C114.777 237.183 120.644 236.822 120.524 233.818C120.439 231.74 120.689 229.663 121.262 227.665C121.689 225.883 122.575 224.244 123.831 222.91C124.714 222.107 123.349 216.661 124.569 216.597C125.982 221.416 132.371 231.055 135.148 235.183C138.235 239.786 141.565 244.221 145.125 248.469Z" fill="url(#paint0_linear_12_241)"/>
<path d="M80.2952 207.777C78.5697 209.316 76.96 210.981 75.4793 212.757C71.9316 217.119 69.5718 222.307 67.3726 227.48C61.5213 241.248 56.4245 255.971 57.9415 270.854C57.9702 271.75 58.2123 272.626 58.6478 273.409C59.3386 274.295 60.3091 274.92 61.4009 275.184C64.2181 276.083 67.2281 276.124 70.23 276.148C81.7961 276.252 93.3783 276.356 104.936 275.794C106.726 275.706 108.621 275.569 110.105 274.557C111.19 273.726 112.055 272.643 112.626 271.401C115.732 265.553 116.639 258.79 119.047 252.637C122.258 244.605 131.087 237.304 129.225 228.838C121.262 192.893 83.9392 204.46 80.2952 207.777Z" fill="#7253C6"/>
<path d="M80.2952 207.777C78.5697 209.316 76.96 210.981 75.4793 212.757C71.9316 217.119 69.5718 222.307 67.3726 227.48C61.5213 241.248 56.4245 255.971 57.9415 270.854C57.9702 271.75 58.2123 272.626 58.6478 273.409C59.3386 274.295 60.3091 274.92 61.4009 275.184C64.2181 276.083 67.2281 276.124 70.23 276.148C81.7961 276.252 93.3783 276.356 104.936 275.794C106.726 275.706 108.621 275.569 110.105 274.557C111.19 273.726 112.055 272.643 112.626 271.401C115.732 265.553 116.639 258.79 119.047 252.637C122.258 244.605 131.087 237.304 129.225 228.838C121.262 192.893 83.9392 204.46 80.2952 207.777Z" fill="url(#paint1_linear_12_241)"/>
<path d="M132.564 178.002C131.207 184.596 129.786 191.367 126.142 197.046C124.814 199.339 122.892 201.231 120.58 202.524C118.228 203.705 115.243 203.865 113.043 202.42C111.944 201.705 110.74 200.58 109.544 201.11C108.677 201.504 108.396 202.58 108.276 203.52C107.974 205.829 108.007 208.169 108.372 210.468C108.521 211.115 108.559 211.784 108.484 212.444C108.329 213.055 108 213.608 107.537 214.035C107.074 214.463 106.497 214.747 105.876 214.854C104.634 215.035 103.366 214.836 102.24 214.283C100.487 213.499 98.9529 212.296 97.7719 210.781C96.591 209.266 95.799 207.485 95.4653 205.592C95.2969 204.314 95.2165 203.026 95.2245 201.737C95.072 196.018 94.165 190.323 94.3496 184.612C94.5342 178.901 95.9549 172.957 99.8317 168.74C102.071 166.444 104.73 164.601 107.666 163.311C112.04 161.222 116.92 159.752 121.704 160.515C123.607 160.816 125.423 161.526 127.027 162.597C128.63 163.667 129.982 165.073 130.99 166.716C133.495 170.564 133.503 173.431 132.564 178.002Z" fill="#FFDAD2"/>
<path d="M144.515 163.471C144.841 160.791 144.344 158.075 143.089 155.684C141.834 153.294 139.882 151.342 137.492 150.09C135.365 149.029 132.997 148.579 130.701 147.969C125.324 146.523 120.163 144.13 114.648 143.616C109.134 143.101 102.793 145.037 100.337 150.041C99.8878 150.957 99.4464 152.065 98.4591 152.306C97.9197 152.365 97.3742 152.315 96.8538 152.162C93.1697 151.511 89.8547 154.66 88.1933 158.009C85.5124 163.431 85.376 169.752 85.9619 175.769C86.4997 181.335 87.9203 187.351 92.3831 190.741C92.8245 191.078 93.4747 191.383 93.9001 191.022C94.0948 190.818 94.2163 190.555 94.2452 190.275C94.6941 188.164 94.8614 186.004 94.7429 183.849C94.6546 182.243 94.3977 180.54 94.8151 178.957C95.2325 177.375 96.5729 175.873 98.2103 175.921C99.7273 175.921 100.947 177.335 101.325 178.813C101.593 180.318 101.536 181.862 101.156 183.343C101.397 183.945 102.24 183.223 102.384 182.596C103.492 177.552 103.741 171.905 107.24 168.138C107.952 168.875 108.47 169.778 108.749 170.765C109.272 170.222 109.937 169.838 110.668 169.656C111.399 169.475 112.167 169.502 112.883 169.736C113.898 170.179 114.832 170.79 115.644 171.544C124.168 178.202 142.725 176.226 144.515 163.471Z" fill="#3F3D56"/>
<path d="M82.7513 216.002C80.0544 217.962 78.7381 221.408 78.6578 224.733C78.5776 228.059 82.0932 249.159 85.4081 255.151C87.9766 259.81 93.3302 271.971 101.461 275.328C103.869 276.324 139.466 275.907 155.985 274.115C155.881 270.204 155.688 266.292 155.431 262.38C155.455 261.864 155.299 261.356 154.99 260.943C154.572 260.509 153.978 257.673 153.384 257.673C143.753 257.714 134.04 260.661 124.409 260.886C123.01 260.977 121.605 260.893 120.227 260.637C119.099 260.356 118.017 259.912 117.016 259.32C109.584 255.111 105.474 246.846 102.569 238.806C100.345 232.605 98.5555 226.187 95.3449 220.396C94.2051 218.332 93.1858 216.323 90.9383 215.416C88.2976 214.348 85.1994 214.227 82.7513 216.002Z" fill="#7253C6"/>
<path d="M82.7513 216.002C80.0544 217.962 78.7381 221.408 78.6578 224.733C78.5776 228.059 82.0932 249.159 85.4081 255.151C87.9766 259.81 93.3302 271.971 101.461 275.328C103.869 276.324 139.466 275.907 155.985 274.115C155.881 270.204 155.688 266.292 155.431 262.38C155.455 261.864 155.299 261.356 154.99 260.943C154.572 260.509 153.978 257.673 153.384 257.673C143.753 257.714 134.04 260.661 124.409 260.886C123.01 260.977 121.605 260.893 120.227 260.637C119.099 260.356 118.017 259.912 117.016 259.32C109.584 255.111 105.474 246.846 102.569 238.806C100.345 232.605 98.5555 226.187 95.3449 220.396C94.2051 218.332 93.1858 216.323 90.9383 215.416C88.2976 214.348 85.1994 214.227 82.7513 216.002Z" fill="url(#paint2_linear_12_241)"/>
<path d="M154.572 256.918C159.573 256.445 165.127 257.561 168.298 261.457C168.631 261.812 168.85 262.26 168.924 262.742C168.92 263.176 168.786 263.598 168.538 263.955C166.668 267.063 162.607 267.802 159.196 269.031C157.421 269.667 155.727 270.508 154.147 271.537C153.258 272.243 152.229 272.752 151.129 273.031C148.721 273.393 146.722 271.24 145.631 269.087C144.379 266.678 142.42 261.73 144.828 259.449C146.795 257.641 152.1 257.143 154.572 256.918Z" fill="#FFDAD2"/>
<path d="M195.981 255.681C196.871 256.188 197.636 256.888 198.22 257.73C198.505 258.156 198.674 258.649 198.711 259.16C198.748 259.671 198.65 260.183 198.429 260.645C198.05 261.215 197.534 261.679 196.928 261.995C192.489 264.637 187.047 265.111 182.552 267.617C181.63 268.288 180.573 268.749 179.454 268.967C178.797 268.981 178.145 268.844 177.549 268.565C176.953 268.287 176.43 267.874 176.019 267.36C175.2 266.338 174.572 265.176 174.165 263.931C168.907 250.115 188.42 250.862 195.981 255.681Z" fill="#FFDAD2"/>
<path d="M68.7852 249.513H89.5817V266.605C89.5817 268.203 88.9475 269.735 87.8186 270.865C86.6896 271.995 85.1585 272.63 83.5619 272.63H74.805C73.2084 272.63 71.6773 271.995 70.5483 270.865C69.4194 269.735 68.7852 268.203 68.7852 266.605V249.513Z" fill="white"/>
<path d="M88.1772 253.657H94.478C95.8085 253.657 97.0845 254.186 98.0253 255.128C98.966 256.069 99.4946 257.346 99.4946 258.678V260.758C99.4946 262.089 98.966 263.366 98.0253 264.308C97.0845 265.249 95.8085 265.778 94.478 265.778H88.1772V253.657Z" stroke="white" stroke-width="3.03781" stroke-miterlimit="10"/>
<path d="M321.964 272.26H40.2513C37.7866 272.26 35.7886 274.258 35.7886 276.722C35.7886 279.186 37.7866 281.184 40.2513 281.184H321.964C324.429 281.184 326.427 279.186 326.427 276.722C326.427 274.258 324.429 272.26 321.964 272.26Z" fill="#7253C6"/>
<path d="M270.178 281.32H110.94V336.59H270.178V281.32Z" fill="#7253C6"/>
<path d="M112.024 281.32H49.4736V336.59H112.024V281.32Z" fill="#7253C6"/>
<path d="M270.185 281.32H111.992V336.59H270.185V281.32Z" fill="url(#paint3_linear_12_241)"/>
<path d="M112.024 281.32H49.4736V336.59H112.024V281.32Z" fill="url(#paint4_linear_12_241)"/>
<path opacity="0.18" d="M325.929 89.0846V124.266H28.637V89.0846C28.6369 87.1743 29.3925 85.3416 30.7386 83.987C32.0846 82.6325 33.9117 81.8662 35.8207 81.8556H318.746C320.655 81.8662 322.482 82.6325 323.828 83.987C325.174 85.3416 325.929 87.1743 325.929 89.0846Z" fill="#7253C6"/>
<path d="M156.956 272.107H260.048C262.938 272.107 265.281 269.763 265.281 266.87C265.281 263.978 262.938 261.633 260.048 261.633H156.956C154.066 261.633 151.723 263.978 151.723 266.87C151.723 269.763 154.066 272.107 156.956 272.107Z" fill="#7253C6"/>
<path d="M156.956 272.107H260.048C262.938 272.107 265.281 269.763 265.281 266.87C265.281 263.978 262.938 261.633 260.048 261.633H156.956C154.066 261.633 151.723 263.978 151.723 266.87C151.723 269.763 154.066 272.107 156.956 272.107Z" fill="url(#paint5_linear_12_241)"/>
<path d="M192.706 272.123H271.823L292.692 219.167C292.969 218.461 293.069 217.698 292.985 216.945C292.9 216.191 292.634 215.47 292.207 214.843C291.781 214.216 291.208 213.703 290.539 213.348C289.869 212.993 289.123 212.806 288.366 212.805H226.281C223.278 212.811 220.345 213.719 217.864 215.412C215.382 217.105 213.466 219.504 212.363 222.299L192.706 272.123Z" fill="#7253C6"/>
<path d="M196.727 272.18H271.871L291.688 221.874C291.953 221.204 292.05 220.479 291.97 219.763C291.89 219.046 291.637 218.361 291.231 217.765C290.826 217.169 290.282 216.682 289.645 216.345C289.008 216.009 288.299 215.833 287.579 215.833H228.616C225.76 215.832 222.969 216.691 220.608 218.298C218.246 219.906 216.422 222.187 215.373 224.846L196.727 272.18Z" fill="#7253C6"/>
<path d="M196.727 272.18H271.871L291.688 221.874C291.953 221.204 292.05 220.479 291.97 219.763C291.89 219.046 291.637 218.361 291.231 217.765C290.826 217.169 290.282 216.682 289.645 216.345C289.008 216.009 288.299 215.833 287.579 215.833H228.616C225.76 215.832 222.969 216.691 220.608 218.298C218.246 219.906 216.422 222.187 215.373 224.846L196.727 272.18Z" fill="url(#paint6_linear_12_241)"/>
<path opacity="0.51" d="M281.8 196.187H170.553V202.452H281.8V196.187Z" fill="white"/>
<path d="M249.638 185.464H170.553V191.729H249.638V185.464Z" fill="white"/>
<path d="M313.392 185.464H260.449V191.729H313.392V185.464Z" fill="white"/>
<path d="M313.207 145.8H231.811V151.367H313.207V145.8Z" fill="white"/>
<path opacity="0.51" d="M301.842 155.688H214.763V161.254H301.842V155.688Z" fill="white"/>
<path d="M225.599 145.8H172.062V151.367H225.599V145.8Z" fill="white"/>
<path d="M313.207 165.279H195.547V170.845H313.207V165.279Z" fill="white"/>
<path opacity="0.51" d="M189.335 165.279H172.062V170.845H189.335V165.279Z" fill="white"/>
<path opacity="0.51" d="M313.207 175.166H235.543V180.733H313.207V175.166Z" fill="white"/>
<path d="M225.599 175.166H172.062V180.733H225.599V175.166Z" fill="white"/>
<path d="M206.488 155.455H172.062V161.021H206.488V155.455Z" fill="white"/>
<path d="M283.437 127.061H202.041V132.627H283.437V127.061Z" fill="white"/>
<path opacity="0.51" d="M272.072 136.949H184.992V142.515H272.072V136.949Z" fill="white"/>
<path d="M195.836 127.061H142.3V132.627H195.836V127.061Z" fill="white"/>
<path d="M282.715 115.535H201.318V121.101H282.715V115.535Z" fill="white"/>
<path d="M195.114 105.077H141.577V110.643H195.114V105.077Z" fill="white"/>
<path d="M195.114 95.5345H141.577V101.101H195.114V95.5345Z" fill="white"/>
<path d="M176.725 136.716H142.3V142.282H176.725V136.716Z" fill="white"/>
</g>
<g clip-path="url(#clip1_12_241)">
<path opacity="0.18" d="M298.293 333.591C284.199 338.432 268.899 346.396 265.276 360.848C263.203 369.129 265.459 378.181 262.556 386.202C258.44 397.564 245.27 403.551 240.681 414.73C238.743 419.458 238.532 424.703 238.715 429.81C239.057 439.392 240.962 449.47 247.309 456.651C256.974 467.598 273.434 468.47 288.022 468.544C364.018 468.854 440.014 468.502 516.011 467.488C518.942 467.448 522.146 467.313 524.361 465.385C525.949 464.004 526.738 461.925 527.3 459.896C530.447 448.509 528.416 435.614 534.352 425.4C537.311 420.31 542.002 416.414 545.067 411.389C551.935 400.128 549.22 384.898 541.464 374.248C533.708 363.599 521.837 356.723 509.827 351.283C497.816 345.842 485.22 341.526 474.089 334.471C452.593 320.789 437.326 297.384 413.375 288.719C392.612 281.196 369.34 287.284 351.899 299.902C344.506 305.266 338.794 312.349 331.69 317.998C321.797 325.835 310.039 329.552 298.293 333.591Z" fill="#7253C6"/>
<path opacity="0.18" d="M222.316 472.383C219.539 472.542 216.27 473.003 214.988 475.468C218.652 479.079 224.148 479.951 229.262 480.559C257.377 483.872 285.75 484.373 314.078 484.875L399.085 486.374C416.819 486.688 434.672 486.99 452.162 484.039C463.248 482.168 474.114 479.002 485.285 477.755C495.96 476.56 506.777 477.135 517.448 475.872C520.102 475.558 522.879 475.057 524.963 473.394C527.048 471.731 528.106 468.475 526.568 466.286C525.346 464.566 523.083 464.061 521.014 463.723C513.279 462.467 505.474 461.791 497.662 461.314C425.068 456.831 352.901 469.057 280.421 470.215C260.964 470.521 241.772 471.262 222.316 472.383Z" fill="#1D2741"/>
<path d="M283.246 371.114C283.246 371.114 285.111 357.327 286.198 355.044C287.285 352.762 287.562 343.164 299.995 349.665C299.995 349.665 301.819 351.507 300.891 353.777C299.963 356.047 300.052 357.681 300.683 358.5C301.314 359.319 299.572 360.188 299.572 360.188C299.572 360.188 299.165 360.049 298.607 362.69C298.049 365.331 292.944 365.164 292.944 365.164C292.944 365.164 290.204 366.554 290.863 370.629C291.523 374.705 284.524 374.297 283.246 371.114Z" fill="url(#paint7_linear_12_241)"/>
<path d="M282.473 356.255C282.294 353.968 282.88 351.515 284.508 349.913C284.804 349.666 285.076 349.394 285.323 349.098C285.542 348.731 285.721 348.342 285.856 347.937C286.294 346.944 286.946 346.061 287.764 345.349C288.583 344.638 289.548 344.116 290.591 343.82C292.7 343.254 294.942 343.474 296.901 344.44C297.907 344.925 298.831 345.577 299.873 345.976C300.915 346.376 302.157 346.486 303.106 345.895C303.192 346.171 303.21 346.464 303.156 346.748C303.103 347.032 302.981 347.299 302.8 347.525L304.254 347.052C304.292 347.911 304.107 348.766 303.715 349.531C303.323 350.297 302.738 350.947 302.019 351.417L302.585 351.331C302.125 352.085 301.042 352.085 300.178 351.922C299.087 351.721 298.019 351.41 296.991 350.993C295.562 350.414 293.88 349.64 292.582 350.48C291.283 351.319 291.295 353.206 290.88 354.714C290.591 355.766 290.029 356.722 289.251 357.486C289.15 356.962 288.946 356.463 288.653 356.018C288.503 355.797 288.295 355.622 288.051 355.514C287.806 355.406 287.537 355.369 287.273 355.407C286.369 355.619 286.177 356.825 286.296 357.746C286.397 358.561 286.703 359.483 287.476 359.743C286.633 360.834 285.965 362.049 285.498 363.346L285.05 363.203C285.002 363.316 284.912 363.405 284.799 363.451C284.687 363.498 284.56 363.498 284.447 363.452C284.04 363.273 283.572 360.893 283.401 360.383C282.924 359.05 282.612 357.664 282.473 356.255Z" fill="#3F3D56"/>
<path d="M358.552 473.056C360.967 473.056 362.924 471.096 362.924 468.678C362.924 466.261 360.967 464.301 358.552 464.301C356.137 464.301 354.179 466.261 354.179 468.678C354.179 471.096 356.137 473.056 358.552 473.056Z" fill="#7253C6"/>
<path d="M360.738 468.678C360.738 469.114 360.609 469.539 360.367 469.901C360.126 470.263 359.783 470.545 359.381 470.712C358.979 470.878 358.537 470.922 358.111 470.837C357.684 470.752 357.292 470.542 356.985 470.235C356.678 469.927 356.468 469.535 356.383 469.108C356.298 468.681 356.342 468.238 356.508 467.836C356.675 467.434 356.957 467.09 357.318 466.848C357.68 466.607 358.105 466.478 358.54 466.478C359.123 466.478 359.682 466.709 360.094 467.122C360.506 467.535 360.738 468.095 360.738 468.678Z" fill="url(#paint8_linear_12_241)"/>
<path d="M385.691 473.056C388.106 473.056 390.063 471.096 390.063 468.678C390.063 466.261 388.106 464.301 385.691 464.301C383.276 464.301 381.318 466.261 381.318 468.678C381.318 471.096 383.276 473.056 385.691 473.056Z" fill="#7253C6"/>
<path d="M385.69 470.875C386.902 470.875 387.885 469.892 387.885 468.678C387.885 467.465 386.902 466.482 385.69 466.482C384.479 466.482 383.496 467.465 383.496 468.678C383.496 469.892 384.479 470.875 385.69 470.875Z" fill="url(#paint9_linear_12_241)"/>
<path d="M481.043 473.056C483.458 473.056 485.415 471.096 485.415 468.678C485.415 466.261 483.458 464.301 481.043 464.301C478.628 464.301 476.67 466.261 476.67 468.678C476.67 471.096 478.628 473.056 481.043 473.056Z" fill="#7253C6"/>
<path d="M481.043 470.875C482.255 470.875 483.237 469.892 483.237 468.678C483.237 467.465 482.255 466.482 481.043 466.482C479.831 466.482 478.849 467.465 478.849 468.678C478.849 469.892 479.831 470.875 481.043 470.875Z" fill="url(#paint10_linear_12_241)"/>
<path d="M508.178 473.056C510.593 473.056 512.55 471.096 512.55 468.678C512.55 466.261 510.593 464.301 508.178 464.301C505.763 464.301 503.805 466.261 503.805 468.678C503.805 471.096 505.763 473.056 508.178 473.056Z" fill="#7253C6"/>
<path d="M508.178 470.875C509.39 470.875 510.372 469.892 510.372 468.678C510.372 467.465 509.39 466.482 508.178 466.482C506.966 466.482 505.983 467.465 505.983 468.678C505.983 469.892 506.966 470.875 508.178 470.875Z" fill="url(#paint11_linear_12_241)"/>
<path d="M333.685 369.72C334.47 369.105 335.525 368.958 336.376 368.445C336.783 368.204 337.117 367.89 337.503 367.63C338.475 366.936 339.613 366.514 340.801 366.407C340.996 366.766 339.922 367.674 339.47 367.927C341.098 367.76 342.14 367.593 343.785 367.519C344.445 367.519 344.245 368.041 343.993 368.151C343.533 368.355 342.149 368.75 341.689 368.966C342.783 368.575 343.92 368.314 345.076 368.188C345.564 368.265 345.361 368.791 345.023 368.913C343.829 369.398 342.605 369.806 341.359 370.136C342.202 369.981 343.37 369.635 344.209 369.631C344.246 369.63 344.283 369.636 344.318 369.649C344.353 369.663 344.385 369.683 344.413 369.708C344.44 369.734 344.462 369.765 344.477 369.799C344.492 369.833 344.501 369.87 344.502 369.908C344.503 369.956 344.492 370.003 344.47 370.046C344.448 370.089 344.415 370.125 344.376 370.152C344.107 370.331 343.813 370.468 343.504 370.56L341.298 371.375C341.999 371.262 342.709 371.21 343.419 371.22C343.854 371.253 343.977 371.705 342.89 372.072C341.93 372.357 340.994 372.72 340.093 373.156C338.081 374.199 335.667 373.861 333.432 373.498C333.562 372.206 333.566 370.984 333.685 369.72Z" fill="url(#paint12_linear_12_241)"/>
<path d="M232.58 463.05L231.159 464.305C231.073 464.377 231.002 464.465 230.95 464.564C230.898 464.663 230.867 464.771 230.857 464.882C230.847 464.994 230.859 465.106 230.893 465.213C230.927 465.319 230.981 465.418 231.053 465.504L231.106 465.565L233.618 468.165C233.813 468.358 234.074 468.471 234.348 468.481C234.622 468.492 234.89 468.399 235.1 468.222L236.5 466.999L232.58 463.05Z" fill="#7253C6"/>
<path d="M301.587 461.721L301.265 463.939C301.25 464.084 301.264 464.231 301.305 464.372C301.347 464.512 301.416 464.643 301.508 464.756C301.601 464.87 301.715 464.964 301.843 465.034C301.972 465.103 302.113 465.146 302.259 465.161H302.291L306.998 465.801C307.331 465.857 307.674 465.783 307.955 465.595C308.236 465.406 308.434 465.117 308.508 464.786L308.842 462.618L301.587 461.721Z" fill="#7253C6"/>
<path d="M232.58 463.05L231.159 464.305C231.073 464.377 231.002 464.465 230.95 464.564C230.898 464.663 230.867 464.771 230.857 464.882C230.847 464.994 230.859 465.106 230.893 465.213C230.927 465.319 230.981 465.418 231.053 465.504L231.106 465.565L233.618 468.165C233.813 468.358 234.074 468.471 234.348 468.481C234.622 468.492 234.89 468.399 235.1 468.222L236.5 466.999L232.58 463.05Z" fill="url(#paint13_linear_12_241)"/>
<path d="M301.587 461.721L301.265 463.939C301.25 464.084 301.264 464.231 301.305 464.372C301.347 464.512 301.416 464.643 301.508 464.756C301.601 464.87 301.715 464.964 301.843 465.034C301.972 465.103 302.113 465.146 302.259 465.161H302.291L306.998 465.801C307.331 465.857 307.674 465.783 307.955 465.595C308.236 465.406 308.434 465.117 308.508 464.786L308.842 462.618L301.587 461.721Z" fill="url(#paint14_linear_12_241)"/>
<path d="M269.648 412.33C267.812 411.922 265.96 412.958 265.601 414.633C264.152 421.406 264.97 436.816 257.866 441.095C250.762 445.374 236.801 456.623 233.211 461.106C232.754 461.648 232.527 462.347 232.577 463.054C232.627 463.761 232.951 464.42 233.479 464.892L234.835 466.164C235.345 466.621 235.976 466.922 236.653 467.03C237.33 467.138 238.023 467.048 238.65 466.771C245.477 463.759 266.334 454.267 269.913 449.071C274.216 442.848 289.898 418.875 289.898 417.905C289.898 417.143 276.227 413.866 269.648 412.33Z" fill="#7253C6"/>
<path d="M269.648 412.33C267.812 411.922 265.96 412.958 265.601 414.633C264.152 421.406 264.97 436.816 257.866 441.095C250.762 445.374 236.801 456.623 233.211 461.106C232.754 461.648 232.527 462.347 232.577 463.054C232.627 463.761 232.951 464.42 233.479 464.892L234.835 466.164C235.345 466.621 235.976 466.922 236.653 467.03C237.33 467.138 238.023 467.048 238.65 466.771C245.477 463.759 266.334 454.267 269.913 449.071C274.216 442.848 289.898 418.875 289.898 417.905C289.898 417.143 276.227 413.866 269.648 412.33Z" fill="url(#paint15_linear_12_241)"/>
<path d="M298.648 380.573C298.648 380.573 313.349 381.173 322.814 378.128C332.28 375.084 333.807 374.053 333.807 374.053L333.326 369.537C333.326 369.537 316.459 372.891 310.841 371.746C305.223 370.601 297.927 374.02 297.927 374.02L298.648 380.573Z" fill="#7253C6"/>
<path d="M298.648 380.573C298.648 380.573 313.349 381.173 322.814 378.128C332.28 375.084 333.807 374.053 333.807 374.053L333.326 369.537C333.326 369.537 316.459 372.891 310.841 371.746C305.223 370.601 297.927 374.02 297.927 374.02L298.648 380.573Z" fill="url(#paint16_linear_12_241)"/>
<path d="M533.529 309.545V412.876C533.529 415.592 532.451 418.197 530.533 420.118C528.614 422.039 526.012 423.118 523.298 423.118H345.54C342.826 423.118 340.223 422.039 338.304 420.118C336.385 418.198 335.306 415.593 335.305 412.876L335.537 304.467C335.538 301.75 336.617 299.144 338.536 297.223C340.455 295.302 343.058 294.222 345.772 294.221L345.54 299.307H523.278C524.621 299.305 525.952 299.567 527.195 300.079C528.437 300.591 529.566 301.343 530.518 302.293C531.47 303.242 532.226 304.369 532.743 305.611C533.259 306.852 533.527 308.184 533.529 309.529V309.545Z" fill="#7253C6"/>
<path d="M533.786 309.133V412.464C533.786 415.181 532.708 417.786 530.789 419.707C528.871 421.627 526.268 422.706 523.555 422.706H345.797C343.083 422.706 340.48 421.627 338.561 419.707C336.641 417.786 335.563 415.181 335.562 412.464V304.226C335.562 298.565 340.484 294.221 346.147 294.221H522.024C532.874 294.653 533.782 303.452 533.794 309.109L533.786 309.133Z" fill="url(#paint17_linear_12_241)"/>
<path d="M521.096 294.221H346.134C343.89 294.221 342.071 296.042 342.071 298.288V310.984C342.071 313.23 343.89 315.051 346.134 315.051H521.096C523.34 315.051 525.159 313.23 525.159 310.984V298.288C525.159 296.042 523.34 294.221 521.096 294.221Z" fill="#7253C6"/>
<path d="M533.529 309.728V413.06C533.528 415.777 532.45 418.382 530.53 420.303C528.611 422.225 526.008 423.304 523.294 423.305L352.323 423.118C349.609 423.118 347.006 422.039 345.087 420.118C343.168 418.198 342.089 415.593 342.088 412.876V309.728C342.089 307.011 343.167 304.406 345.087 302.485C347.006 300.563 349.609 299.484 352.323 299.482L521.096 294.221C533.529 294.221 533.533 304.076 533.529 309.728Z" fill="#7253C6"/>
<path d="M278.577 371.444C278.577 371.444 281.866 367.104 291.58 367.149C301.294 367.193 309.929 367.303 312.4 366.497C314.872 365.69 329.3 360.44 329.3 360.44L331.385 365.934C331.385 365.934 317.99 373.987 311.651 375.308C303.977 376.91 298.245 378.976 296.181 385.933C294.116 392.89 293.225 406.914 290.33 409.571C287.436 412.228 268.346 416.377 266.228 411.792C264.111 407.207 268.899 387.339 278.577 371.444Z" fill="#7253C6"/>
<path d="M331.384 365.93C331.384 365.93 329.756 366.896 327.411 368.216C322.932 370.702 315.796 374.444 311.651 375.308C303.977 376.91 298.245 378.976 296.18 385.933C294.275 392.291 293.383 404.582 291.026 408.646C290.84 408.981 290.606 409.288 290.33 409.555C287.439 412.196 268.345 416.361 266.228 411.776C264.111 407.191 268.923 387.355 278.597 371.428C278.597 371.428 281.886 367.087 291.6 367.132C301.314 367.177 309.949 367.287 312.421 366.48C314.892 365.673 329.32 360.44 329.32 360.44L331.384 365.93Z" fill="url(#paint18_linear_12_241)"/>
<path d="M266.208 411.548C266.208 411.548 263.411 421.353 270.206 424.699C277.001 428.045 302.405 432.924 302.405 432.924C302.405 432.924 297.964 451.031 299.425 458.192L299.991 460.976C300.116 461.476 300.403 461.92 300.806 462.241C301.21 462.561 301.707 462.74 302.222 462.748L307.71 463.034C308.184 463.07 308.659 462.967 309.075 462.738C309.492 462.508 309.832 462.162 310.055 461.742C313.056 455.629 319.012 431.399 313.817 424.687C307.865 417.009 290.306 409.542 290.306 409.542L266.208 411.548Z" fill="#7253C6"/>
<path d="M310.137 461.583L310.055 461.754C309.878 462.094 309.621 462.386 309.307 462.606C308.993 462.826 308.631 462.967 308.252 463.017C308.073 463.045 307.891 463.055 307.71 463.046L306.688 462.993L302.21 462.761C301.695 462.752 301.197 462.574 300.794 462.253C300.391 461.933 300.104 461.488 299.979 460.988L299.433 458.204C297.972 451.031 302.413 432.936 302.413 432.936C302.413 432.936 277.013 428.045 270.214 424.711C263.415 421.378 266.216 411.56 266.216 411.56L274.945 410.838L290.306 409.567C290.306 409.567 307.861 417.033 313.813 424.711C318.975 431.355 313.162 455.184 310.137 461.583Z" fill="url(#paint19_linear_12_241)"/>
<path d="M310.137 461.444L308.252 462.867L307.845 463.176C307.438 463.158 307.042 463.044 306.688 462.842C306.417 462.693 306.181 462.487 305.995 462.239C305.81 461.991 305.68 461.706 305.614 461.404L305.048 458.62C304.413 455.506 308.504 443.133 309.245 438.242C309.74 434.961 308.972 431.614 307.097 428.877C305.223 426.14 302.38 424.217 299.144 423.497C291.69 421.822 283.006 419.646 279.44 417.893C276.276 416.336 275.193 413.377 274.937 410.659L290.306 409.387C290.306 409.387 307.861 416.854 313.813 424.532C318.975 431.212 313.162 455.046 310.137 461.444Z" fill="url(#paint20_linear_12_241)"/>
<path d="M302.283 465.182C302.283 465.182 299.486 472.762 300.056 473.418C300.626 474.074 322.802 473.418 322.802 473.418C322.802 473.418 323.844 471.38 318.849 469.832C313.854 468.283 308.036 467.867 308.036 467.867L306.989 465.83L302.283 465.182Z" fill="#7253C6"/>
<path d="M231.106 465.565L226.933 467.069L225.895 468.475L234.22 476.316H243.893C243.893 476.316 242.644 472.546 238.898 472.375C235.153 472.204 233.605 468.173 233.605 468.173L231.106 465.565Z" fill="#7253C6"/>
<path d="M302.283 465.182C302.283 465.182 299.486 472.762 300.056 473.418C300.626 474.074 322.802 473.418 322.802 473.418C322.802 473.418 323.844 471.38 318.849 469.832C313.854 468.283 308.036 467.867 308.036 467.867L306.989 465.83L302.283 465.182Z" fill="url(#paint21_linear_12_241)"/>
<path d="M231.106 465.565L226.933 467.069L225.895 468.475L234.22 476.316H243.893C243.893 476.316 242.644 472.546 238.898 472.375C235.153 472.204 233.605 468.173 233.605 468.173L231.106 465.565Z" fill="url(#paint22_linear_12_241)"/>
<path d="M329.561 360.978C330.065 360.118 330.998 359.601 331.596 358.814C331.881 358.443 332.089 358.028 332.353 357.644C333.002 356.639 333.907 355.826 334.975 355.289C335.289 355.55 334.613 356.789 334.287 357.188C335.753 356.438 336.653 355.904 338.151 355.224C338.774 355.004 338.77 355.546 338.578 355.737C338.224 356.096 337.076 356.96 336.718 357.323C337.598 356.56 338.564 355.903 339.596 355.366C340.077 355.264 340.077 355.827 339.808 356.063C338.875 356.953 337.887 357.782 336.848 358.545C337.577 358.093 338.542 357.347 339.34 357.033C339.375 357.021 339.413 357.016 339.45 357.018C339.488 357.021 339.524 357.031 339.558 357.047C339.592 357.064 339.622 357.087 339.647 357.116C339.671 357.144 339.69 357.177 339.702 357.212C339.715 357.25 339.72 357.289 339.716 357.329C339.713 357.368 339.701 357.406 339.682 357.441C339.498 357.708 339.276 357.947 339.022 358.15L337.255 359.703C337.87 359.344 338.514 359.038 339.181 358.79C339.588 358.659 339.873 359.038 338.994 359.776C338.203 360.396 337.462 361.077 336.779 361.814C335.285 363.513 332.911 364.076 330.696 364.548C330.375 363.338 329.919 362.201 329.561 360.978Z" fill="url(#paint23_linear_12_241)"/>
<path d="M373.086 465.385C369.931 465.385 367.386 462.826 367.386 460.495V431.204C367.386 427.214 369.947 424.65 373.086 424.65C374.598 424.65 376.047 425.252 377.116 426.322C378.185 427.392 378.786 428.843 378.786 430.356V459.647C378.79 460.396 378.647 461.139 378.364 461.833C378.082 462.527 377.666 463.158 377.139 463.691C376.613 464.224 375.987 464.648 375.297 464.939C374.607 465.229 373.867 465.381 373.119 465.385H373.086Z" fill="#7253C6"/>
<path d="M494.14 465.385C492.629 465.385 491.179 464.784 490.11 463.714C489.041 462.644 488.44 461.193 488.44 459.68V430.372C488.44 428.859 489.041 427.408 490.11 426.338C491.179 425.268 492.629 424.667 494.14 424.667C495.652 424.667 497.102 425.268 498.171 426.338C499.239 427.408 499.84 428.859 499.84 430.372V459.663C499.84 461.177 499.239 462.628 498.171 463.698C497.102 464.768 495.652 465.369 494.14 465.369V465.385Z" fill="#7253C6"/>
<path d="M373.086 465.385C369.931 465.385 367.386 462.826 367.386 460.495V431.204C367.386 427.214 369.947 424.65 373.086 424.65C374.598 424.65 376.047 425.252 377.116 426.322C378.185 427.392 378.786 428.843 378.786 430.356V459.647C378.79 460.396 378.647 461.139 378.364 461.833C378.082 462.527 377.666 463.158 377.139 463.691C376.613 464.224 375.987 464.648 375.297 464.939C374.607 465.229 373.867 465.381 373.119 465.385H373.086Z" fill="url(#paint24_linear_12_241)"/>
<path d="M494.14 465.385C492.629 465.385 491.179 464.784 490.11 463.714C489.041 462.644 488.44 461.193 488.44 459.68V430.372C488.44 428.859 489.041 427.408 490.11 426.338C491.179 425.268 492.629 424.667 494.14 424.667C495.652 424.667 497.102 425.268 498.171 426.338C499.239 427.408 499.84 428.859 499.84 430.372V459.663C499.84 461.177 499.239 462.628 498.171 463.698C497.102 464.768 495.652 465.369 494.14 465.369V465.385Z" fill="url(#paint25_linear_12_241)"/>
<path d="M389.546 466.025H354.766C354.408 466.025 354.065 465.883 353.813 465.63C353.56 465.377 353.418 465.034 353.418 464.676C353.418 464.318 353.56 463.975 353.813 463.722C354.065 463.469 354.408 463.327 354.766 463.327H389.546C389.904 463.327 390.246 463.469 390.499 463.722C390.752 463.975 390.894 464.318 390.894 464.676C390.894 465.034 390.752 465.377 390.499 465.63C390.246 465.883 389.904 466.025 389.546 466.025Z" fill="#7253C6"/>
<path d="M512.001 466.025H477.22C476.863 466.025 476.52 465.883 476.267 465.63C476.015 465.377 475.873 465.034 475.873 464.676C475.873 464.318 476.015 463.975 476.267 463.722C476.52 463.469 476.863 463.327 477.22 463.327H512.001C512.358 463.327 512.701 463.469 512.954 463.722C513.206 463.975 513.348 464.318 513.348 464.676C513.348 465.034 513.206 465.377 512.954 465.63C512.701 465.883 512.358 466.025 512.001 466.025Z" fill="#7253C6"/>
<path d="M512.001 466.025H477.22C476.863 466.025 476.52 465.883 476.267 465.63C476.015 465.377 475.873 465.034 475.873 464.676C475.873 464.318 476.015 463.975 476.267 463.722C476.52 463.469 476.863 463.327 477.22 463.327H512.001C512.358 463.327 512.701 463.469 512.954 463.722C513.206 463.975 513.348 464.318 513.348 464.676C513.348 465.034 513.206 465.377 512.954 465.63C512.701 465.883 512.358 466.025 512.001 466.025Z" fill="url(#paint26_linear_12_241)"/>
<path d="M389.546 466.025H354.766C354.408 466.025 354.065 465.883 353.813 465.63C353.56 465.377 353.418 465.034 353.418 464.676C353.418 464.318 353.56 463.975 353.813 463.722C354.065 463.469 354.408 463.327 354.766 463.327H389.546C389.904 463.327 390.246 463.469 390.499 463.722C390.752 463.975 390.894 464.318 390.894 464.676C390.894 465.034 390.752 465.377 390.499 465.63C390.246 465.883 389.904 466.025 389.546 466.025Z" fill="url(#paint27_linear_12_241)"/>
<path d="M467.905 378.585V372.549C467.911 371.536 467.515 370.563 466.804 369.842C466.093 369.122 465.126 368.713 464.115 368.705H379.596C378.218 368.705 376.897 368.158 375.923 367.182C374.948 366.207 374.401 364.884 374.401 363.505V355.395C374.401 354.016 374.948 352.693 375.923 351.718C376.897 350.742 378.218 350.194 379.596 350.194H464.436C465.447 350.194 466.417 349.793 467.132 349.079C467.848 348.365 468.252 347.396 468.255 346.384V339.834C468.257 339.182 468.426 338.541 468.746 337.973C469.066 337.405 469.525 336.928 470.081 336.588C470.637 336.248 471.271 336.056 471.922 336.031C472.573 336.006 473.22 336.148 473.8 336.444C473.873 336.481 473.943 336.524 474.008 336.574L499.201 355.444C499.801 355.775 500.302 356.263 500.649 356.855C500.997 357.448 501.178 358.123 501.175 358.81C501.172 359.496 500.983 360.17 500.63 360.759C500.277 361.347 499.772 361.83 499.168 362.156L473.633 381.89C473.559 381.949 473.478 381.999 473.393 382.041C472.81 382.326 472.163 382.457 471.515 382.422C470.867 382.387 470.238 382.187 469.689 381.841C469.139 381.495 468.687 381.014 468.375 380.445C468.063 379.875 467.901 379.234 467.905 378.585Z" fill="#7253C6"/>
<path d="M345.365 309.838C345.365 309.838 345.662 301.687 355.083 301.043H376.424C376.424 301.043 364.105 303 362.924 309.838C361.744 316.677 362.924 409.738 362.924 409.738C362.924 409.738 364.663 420.632 381.318 421.178H352.306C352.306 421.178 345.849 419.425 345.365 415.101C344.881 410.777 345.365 309.838 345.365 309.838Z" fill="#7253C6"/>
<path d="M467.905 378.585V372.549C467.911 371.536 467.515 370.563 466.804 369.842C466.093 369.122 465.126 368.713 464.115 368.705H379.596C378.218 368.705 376.897 368.158 375.923 367.182C374.948 366.207 374.401 364.884 374.401 363.505V355.395C374.401 354.016 374.948 352.693 375.923 351.718C376.897 350.742 378.218 350.194 379.596 350.194H464.436C465.447 350.194 466.417 349.793 467.132 349.079C467.848 348.365 468.252 347.396 468.255 346.384V339.834C468.257 339.182 468.426 338.541 468.746 337.973C469.066 337.405 469.525 336.928 470.081 336.588C470.637 336.248 471.271 336.056 471.922 336.031C472.573 336.006 473.22 336.148 473.8 336.444C473.873 336.481 473.943 336.524 474.008 336.574L499.201 355.444C499.801 355.775 500.302 356.263 500.649 356.855C500.997 357.448 501.178 358.123 501.175 358.81C501.172 359.496 500.983 360.17 500.63 360.759C500.277 361.347 499.772 361.83 499.168 362.156L473.633 381.89C473.559 381.949 473.478 381.999 473.393 382.041C472.81 382.326 472.163 382.457 471.515 382.422C470.867 382.387 470.238 382.187 469.689 381.841C469.139 381.495 468.687 381.014 468.375 380.445C468.063 379.875 467.901 379.234 467.905 378.585Z" fill="#7253C6"/>
<path d="M467.905 378.585V372.549C467.911 371.536 467.515 370.563 466.804 369.842C466.093 369.122 465.126 368.713 464.115 368.705H379.596C378.218 368.705 376.897 368.158 375.923 367.182C374.948 366.207 374.401 364.884 374.401 363.505V355.395C374.401 352.522 378.448 345.043 381.322 345.043L379.6 350.194H464.436C465.447 350.194 466.417 349.793 467.132 349.079C467.848 348.365 468.252 347.396 468.255 346.384V339.834C468.255 337.727 471.757 330.925 473.861 330.929C474.46 330.929 473.267 336.17 473.8 336.444C473.873 336.481 473.943 336.524 474.008 336.574L503.923 352.599C505.772 353.614 501.721 358.782 500.707 360.628C500.353 361.276 499.818 361.807 499.168 362.156L473.633 381.89C473.559 381.949 473.478 381.999 473.393 382.041C472.81 382.326 472.163 382.457 471.515 382.422C470.867 382.387 470.238 382.187 469.689 381.841C469.139 381.495 468.687 381.014 468.375 380.445C468.063 379.875 467.901 379.234 467.905 378.585Z" fill="url(#paint28_linear_12_241)"/>
<path d="M471.113 373.213V367.177C471.116 366.676 471.021 366.178 470.832 365.714C470.643 365.249 470.365 364.827 470.013 364.47C469.661 364.113 469.242 363.829 468.781 363.634C468.319 363.439 467.824 363.337 467.323 363.334H382.804C381.426 363.334 380.105 362.786 379.131 361.811C378.156 360.835 377.609 359.513 377.609 358.134V350.023C377.61 348.644 378.158 347.322 379.132 346.347C380.106 345.372 381.427 344.824 382.804 344.823H467.645C468.656 344.824 469.626 344.423 470.342 343.709C471.058 342.994 471.461 342.024 471.463 341.012V334.463C471.468 333.45 471.873 332.481 472.59 331.767C473.308 331.054 474.279 330.654 475.29 330.656C475.887 330.657 476.475 330.797 477.008 331.064C477.08 331.102 477.15 331.146 477.216 331.194L502.417 350.072C503.017 350.404 503.516 350.891 503.862 351.483C504.208 352.074 504.389 352.749 504.385 353.434C504.381 354.12 504.192 354.792 503.838 355.379C503.485 355.967 502.98 356.448 502.376 356.772L476.841 376.506C476.768 376.566 476.687 376.617 476.601 376.657C476.018 376.942 475.371 377.073 474.723 377.038C474.075 377.003 473.446 376.804 472.897 376.457C472.347 376.111 471.895 375.631 471.583 375.061C471.271 374.491 471.109 373.851 471.113 373.201V373.213Z" fill="#7253C6"/>
<path d="M471.113 373.213V367.177C471.116 366.676 471.021 366.178 470.832 365.714C470.643 365.249 470.365 364.827 470.013 364.47C469.661 364.113 469.242 363.829 468.781 363.634C468.319 363.439 467.824 363.337 467.323 363.334H382.804C381.426 363.334 380.105 362.786 379.131 361.811C378.156 360.835 377.609 359.513 377.609 358.134V350.023C377.61 348.644 378.158 347.322 379.132 346.347C380.106 345.372 381.427 344.824 382.804 344.823H467.645C468.656 344.824 469.626 344.423 470.342 343.709C471.058 342.994 471.461 342.024 471.463 341.012V334.463C471.468 333.45 471.873 332.481 472.59 331.767C473.308 331.054 474.279 330.654 475.29 330.656C475.887 330.657 476.475 330.797 477.008 331.064C477.08 331.102 477.15 331.146 477.216 331.194L502.417 350.072C503.017 350.404 503.516 350.891 503.862 351.483C504.208 352.074 504.389 352.749 504.385 353.434C504.381 354.12 504.192 354.792 503.838 355.379C503.485 355.967 502.98 356.448 502.376 356.772L476.841 376.506C476.768 376.566 476.687 376.617 476.601 376.657C476.018 376.942 475.371 377.073 474.723 377.038C474.075 377.003 473.446 376.804 472.897 376.457C472.347 376.111 471.895 375.631 471.583 375.061C471.271 374.491 471.109 373.851 471.113 373.201V373.213Z" fill="url(#paint29_linear_12_241)"/>
<path d="M342.303 299.401C342.303 299.401 341.489 295.158 345.772 294.221H373.359C373.359 294.221 361.039 292.562 359.859 299.401C358.678 306.24 359.859 409.738 359.859 409.738C359.859 409.738 362.757 422.274 379.401 422.82H351.215C351.215 422.82 343.362 422.413 342.303 415.101C341.681 410.794 342.303 299.401 342.303 299.401Z" fill="url(#paint30_linear_12_241)"/>
<path d="M534.901 425.408V427.071C534.901 428.502 533.143 429.659 530.977 429.659H338.371C336.205 429.659 334.446 428.502 334.446 427.071V425.408C334.447 425.324 334.453 425.239 334.466 425.156C334.658 423.843 336.335 422.82 338.371 422.82H530.977C533.012 422.82 534.69 423.843 534.881 425.156C534.894 425.239 534.901 425.324 534.901 425.408Z" fill="#7253C6"/>
<path d="M534.881 424.597C534.694 425.592 533.016 426.37 530.977 426.37H338.371C336.335 426.37 334.654 425.592 334.466 424.597C334.658 423.599 336.335 422.82 338.371 422.82H530.977C533.012 422.82 534.69 423.611 534.881 424.597Z" fill="url(#paint31_linear_12_241)"/>
<path d="M330.705 364.557L331.384 365.93C326.906 368.416 315.796 374.444 311.651 375.304C303.977 376.905 298.245 378.972 296.18 385.929C294.275 392.286 293.384 404.578 291.026 408.642L290.33 409.412L274.937 410.7C274.937 410.7 280.229 383.622 284.301 380.635C288.372 377.647 297.622 375.467 304.225 373.6C310.829 371.734 330.705 364.557 330.705 364.557Z" fill="url(#paint32_linear_12_241)"/>
</g>
<g clip-path="url(#clip2_12_241)">
<path opacity="0.18" d="M395.823 223.394C386.712 234.025 373.777 242.621 370.477 256.224C367.892 266.869 372.659 278.898 381.833 284.876C389.676 290.015 399.686 290.68 408.968 289.529C418.249 288.378 427.311 285.644 436.607 284.454C447.657 283.075 458.858 283.968 469.976 283.371C481.094 282.774 492.601 280.394 501.304 273.454C503.991 271.313 506.421 268.666 507.514 265.407C508.666 261.954 508.209 258.205 508.262 254.563C508.389 248.886 509.773 243.308 512.316 238.23C514.858 233.152 518.496 228.701 522.967 225.196C528.074 221.248 534.143 218.64 539.046 214.434C543.093 210.887 546.182 206.378 548.027 201.324C549.872 196.27 550.415 190.833 549.605 185.515C548.983 181.688 465.593 185.306 457.497 185.602C449.962 185.884 442.427 186.228 434.892 186.636C429.795 186.913 419.342 185.602 415.256 189.006C411.577 192.066 409.677 201.201 407.408 205.581C404.147 211.89 400.449 217.984 395.823 223.394Z" fill="#7253C6"/>
<path d="M609.52 12.4032V175.714C609.521 178.987 608.223 182.126 605.909 184.442C603.596 186.757 600.457 188.06 597.182 188.064H351.021C347.744 188.064 344.603 186.764 342.286 184.448C339.97 182.133 338.668 178.993 338.668 175.719V175.719V12.4032C338.676 9.13331 339.98 5.9998 342.296 3.68942C344.611 1.37904 347.749 0.0802594 351.021 0.0776978H597.182C600.452 0.0841105 603.585 1.3846 605.898 3.69456C608.21 6.00452 609.512 9.13583 609.52 12.4032Z" fill="#7253C6"/>
<path d="M609.52 12.4032V175.714C609.521 178.987 608.223 182.126 605.909 184.442C603.596 186.757 600.457 188.06 597.182 188.064H351.021C347.744 188.064 344.603 186.764 342.286 184.448C339.97 182.133 338.668 178.993 338.668 175.719V175.719V12.4032C338.676 9.13331 339.98 5.9998 342.296 3.68942C344.611 1.37904 347.749 0.0802594 351.021 0.0776978H597.182C600.452 0.0841105 603.585 1.3846 605.898 3.69456C608.21 6.00452 609.512 9.13583 609.52 12.4032Z" fill="url(#paint33_linear_12_241)"/>
<path opacity="0.19" d="M415.236 33.1012L411.198 35.0001V116.398L421.762 154.511L423.22 187.535L449.946 188.02V131.089L460.991 114.766L536.99 114.47V110.24L415.236 33.1012ZM451.02 116.52C449.951 118.948 447.677 121.221 446.088 123.348C444.144 125.964 442.169 128.572 440.164 131.171C439.988 131.43 439.764 131.653 439.503 131.827C438.566 132.356 437.477 131.477 436.797 130.647C432.891 125.93 429.876 120.542 427.899 114.747C427.765 114.463 427.743 114.139 427.836 113.839C428.035 113.402 428.633 113.353 429.114 113.353C435.14 113.518 441.165 113.721 447.191 113.96C449.251 114.038 452.288 113.596 451.015 116.505L451.02 116.52Z" fill="url(#paint34_linear_12_241)"/>
<path d="M539.998 30.7022H415.231V111.872H539.998V30.7022Z" fill="white"/>
<path d="M535.552 34.9855H419.901V107.589H535.552V34.9855Z" fill="#7253C6"/>
<path d="M535.552 74.4098V107.589H419.901V85.5795C426.49 78.2269 436.228 73.3559 444.902 67.3389C446.48 66.1476 448.199 65.1544 450.019 64.3813C457.463 61.5743 465.36 66.4647 472.129 70.6461C480.325 75.7097 488.963 80.022 497.936 83.5301C494.92 79.169 490.547 75.9254 485.497 74.3029L497.295 64.5319C498.753 63.3226 500.259 62.1036 502.043 61.448C505.624 60.1708 509.56 61.5015 513.093 62.905C518.036 64.8767 522.905 67.0183 527.7 69.33C530.518 70.7092 533.375 72.1807 535.552 74.4098Z" fill="url(#paint35_linear_12_241)"/>
<path opacity="0.19" d="M424.367 91.548C425.183 92.4853 425.966 93.6508 427.19 93.85C427.576 93.8558 427.957 93.9366 428.313 94.0879C428.798 94.389 428.857 95.0592 428.871 95.6177C428.939 98.1398 429.006 100.659 429.071 103.174C429.109 104.587 429.071 106.146 428.157 107.205C427.739 107.691 427.185 108.002 426.743 108.477C426.506 108.691 426.348 108.978 426.293 109.292C426.239 109.607 426.291 109.93 426.442 110.211C428.903 110.218 431.34 110.686 433.629 111.59L420.402 111.862C420.068 111.9 419.73 111.839 419.43 111.688C418.978 111.391 418.91 110.77 418.895 110.231C418.842 108.069 418.895 105.908 419.012 103.752C419.151 102.32 419.174 100.88 419.08 99.4445C418.9 97.6428 418.283 95.8411 418.633 94.0636C419.187 91.1935 422.039 88.8721 424.367 91.548Z" fill="url(#paint36_linear_12_241)"/>
<path d="M518.807 56.8879C523.112 56.8879 526.601 53.4003 526.601 49.0982C526.601 44.7961 523.112 41.3085 518.807 41.3085C514.502 41.3085 511.013 44.7961 511.013 49.0982C511.013 53.4003 514.502 56.8879 518.807 56.8879Z" fill="white"/>
<path d="M423.22 282.594C423.607 282.594 423.977 282.44 424.251 282.167C424.524 281.894 424.678 281.523 424.678 281.137V133.255C424.678 132.868 424.524 132.498 424.251 132.225C423.977 131.951 423.607 131.798 423.22 131.798C422.833 131.798 422.463 131.951 422.189 132.225C421.916 132.498 421.762 132.868 421.762 133.255V281.122C421.762 281.509 421.916 281.879 422.189 282.153C422.463 282.426 422.833 282.579 423.22 282.579V282.594Z" fill="#7253C6"/>
<path d="M444.076 282.594C444.463 282.594 444.833 282.44 445.107 282.167C445.38 281.894 445.534 281.523 445.534 281.137V133.255C445.534 132.868 445.38 132.498 445.107 132.225C444.833 131.951 444.463 131.798 444.076 131.798C443.689 131.798 443.319 131.951 443.045 132.225C442.772 132.498 442.618 132.868 442.618 133.255V281.122C442.618 281.509 442.772 281.879 443.045 282.153C443.319 282.426 443.689 282.579 444.076 282.579V282.594Z" fill="#7253C6"/>
<path d="M444.076 144.405H423.225V147.761H444.076V144.405Z" fill="#7253C6"/>
<path d="M444.076 165.953H423.225V169.309H444.076V165.953Z" fill="#7253C6"/>
<path d="M444.076 187.496H423.225V190.852H444.076V187.496Z" fill="#7253C6"/>
<path d="M444.076 209.044H423.225V212.4H444.076V209.044Z" fill="#7253C6"/>
<path d="M444.076 230.587H423.225V233.943H444.076V230.587Z" fill="#7253C6"/>
<path d="M444.076 252.135H423.225V255.49H444.076V252.135Z" fill="#7253C6"/>
<path d="M423.22 282.594C423.607 282.594 423.977 282.44 424.251 282.167C424.524 281.894 424.678 281.523 424.678 281.137V133.255C424.678 132.868 424.524 132.498 424.251 132.225C423.977 131.951 423.607 131.798 423.22 131.798C422.833 131.798 422.463 131.951 422.189 132.225C421.916 132.498 421.762 132.868 421.762 133.255V281.122C421.762 281.509 421.916 281.879 422.189 282.153C422.463 282.426 422.833 282.579 423.22 282.579V282.594Z" fill="url(#paint37_linear_12_241)"/>
<path d="M444.076 282.594C444.463 282.594 444.833 282.44 445.107 282.167C445.38 281.894 445.534 281.523 445.534 281.137V133.255C445.534 132.868 445.38 132.498 445.107 132.225C444.833 131.951 444.463 131.798 444.076 131.798C443.689 131.798 443.319 131.951 443.045 132.225C442.772 132.498 442.618 132.868 442.618 133.255V281.122C442.618 281.509 442.772 281.879 443.045 282.153C443.319 282.426 443.689 282.579 444.076 282.579V282.594Z" fill="url(#paint38_linear_12_241)"/>
<path d="M444.076 144.405H423.225V147.761H444.076V144.405Z" fill="url(#paint39_linear_12_241)"/>
<path d="M444.076 165.953H423.225V169.309H444.076V165.953Z" fill="url(#paint40_linear_12_241)"/>
<path d="M444.076 187.496H423.225V190.852H444.076V187.496Z" fill="url(#paint41_linear_12_241)"/>
<path d="M444.076 209.044H423.225V212.4H444.076V209.044Z" fill="url(#paint42_linear_12_241)"/>
<path d="M444.076 230.587H423.225V233.943H444.076V230.587Z" fill="url(#paint43_linear_12_241)"/>
<path d="M444.076 252.135H423.225V255.49H444.076V252.135Z" fill="url(#paint44_linear_12_241)"/>
<path d="M610.332 12.3547V14.7829H339.475V12.3547C339.475 9.07886 340.777 5.93713 343.094 3.62032C345.411 1.30351 348.554 0.00128767 351.832 0H597.974C601.251 0.00128708 604.394 1.30284 606.711 3.6186C609.028 5.93437 610.33 9.07485 610.332 12.3498V12.3547Z" fill="#7253C6"/>
<path d="M610.332 12.3547V14.7829H339.475V12.3547C339.475 9.07886 340.777 5.93713 343.094 3.62032C345.411 1.30351 348.554 0.00128767 351.832 0H597.974C601.251 0.00128708 604.394 1.30284 606.711 3.6186C609.028 5.93437 610.33 9.07485 610.332 12.3498V12.3547Z" fill="#7253C6"/>
<path d="M610.332 12.3547V14.7829H339.475V12.3547C339.475 9.07886 340.777 5.93713 343.094 3.62032C345.411 1.30351 348.554 0.00128767 351.832 0H597.974C601.251 0.00128708 604.394 1.30284 606.711 3.6186C609.028 5.93437 610.33 9.07485 610.332 12.3498V12.3547Z" fill="url(#paint45_linear_12_241)"/>
<path d="M353.523 7.40116C353.523 7.78536 353.409 8.16093 353.196 8.48038C352.982 8.79984 352.678 9.04882 352.323 9.19585C351.968 9.34288 351.577 9.38135 351.2 9.30639C350.823 9.23144 350.477 9.04643 350.205 8.77475C349.933 8.50308 349.748 8.15695 349.673 7.78013C349.598 7.40331 349.637 7.01273 349.784 6.65777C349.931 6.30281 350.18 5.99943 350.5 5.78598C350.819 5.57252 351.195 5.4586 351.579 5.4586C352.095 5.4586 352.589 5.66326 352.954 6.02756C353.318 6.39186 353.523 6.88596 353.523 7.40116Z" fill="url(#paint46_linear_12_241)"/>
<path d="M362.586 7.40116C362.586 7.78536 362.472 8.16093 362.258 8.48038C362.045 8.79984 361.741 9.04882 361.386 9.19585C361.031 9.34288 360.64 9.38135 360.263 9.30639C359.886 9.23144 359.539 9.04643 359.268 8.77475C358.996 8.50308 358.811 8.15695 358.736 7.78013C358.661 7.40331 358.699 7.01273 358.846 6.65777C358.993 6.30281 359.242 5.99943 359.562 5.78598C359.882 5.57252 360.258 5.4586 360.642 5.4586C361.157 5.4586 361.652 5.66326 362.016 6.02756C362.381 6.39186 362.586 6.88596 362.586 7.40116Z" fill="url(#paint47_linear_12_241)"/>
<path d="M369.695 9.34372C370.771 9.34372 371.643 8.47183 371.643 7.3963C371.643 6.32077 370.771 5.44888 369.695 5.44888C368.619 5.44888 367.746 6.32077 367.746 7.3963C367.746 8.47183 368.619 9.34372 369.695 9.34372Z" fill="url(#paint48_linear_12_241)"/>
<path d="M397.986 14.7975V188.02H351.823C348.546 188.02 345.404 186.72 343.086 184.405C340.769 182.09 339.467 178.95 339.465 175.675V14.7975H397.986Z" fill="#7253C6"/>
<path d="M390.177 42.6101H347.784C347.441 42.6088 347.111 42.4718 346.868 42.2289C346.625 41.986 346.488 41.6569 346.487 41.3134C346.486 41.1438 346.519 40.9757 346.583 40.8187C346.648 40.6617 346.742 40.5189 346.862 40.3985C346.982 40.2781 347.124 40.1824 347.28 40.1169C347.437 40.0514 347.605 40.0174 347.775 40.0167H390.177C390.52 40.018 390.85 40.155 391.093 40.3979C391.336 40.6408 391.473 40.9699 391.474 41.3134C391.473 41.6569 391.336 41.986 391.093 42.2289C390.85 42.4718 390.52 42.6088 390.177 42.6101Z" fill="url(#paint49_linear_12_241)"/>
<path d="M390.177 66.5618H347.784C347.441 66.5606 347.111 66.4235 346.868 66.1806C346.625 65.9377 346.488 65.6087 346.487 65.2652C346.487 64.9217 346.623 64.5921 346.865 64.3483C347.107 64.1045 347.436 63.9662 347.779 63.9637H390.177C390.521 63.9649 390.851 64.1026 391.094 64.3466C391.338 64.5905 391.474 64.9208 391.474 65.2652C391.472 65.6083 391.334 65.9366 391.091 66.1792C390.849 66.4219 390.52 66.5593 390.177 66.5618Z" fill="url(#paint50_linear_12_241)"/>
<path d="M390.177 90.5185H347.784C347.441 90.5172 347.111 90.3802 346.868 90.1373C346.625 89.8944 346.488 89.5653 346.487 89.2218C346.484 89.0497 346.516 88.8787 346.58 88.7189C346.644 88.5591 346.739 88.4135 346.86 88.2906C346.98 88.1678 347.124 88.0701 347.283 88.0032C347.442 87.9363 347.612 87.9015 347.784 87.9009H390.177C390.52 87.9034 390.849 88.0408 391.091 88.2835C391.334 88.5261 391.472 88.8544 391.474 89.1975C391.477 89.3697 391.445 89.5406 391.381 89.7004C391.317 89.8603 391.222 90.0058 391.101 90.1287C390.981 90.2515 390.837 90.3493 390.678 90.4162C390.52 90.4831 390.349 90.5178 390.177 90.5185Z" fill="url(#paint51_linear_12_241)"/>
<path d="M390.177 114.47H347.784C347.615 114.471 347.446 114.438 347.289 114.374C347.132 114.309 346.989 114.215 346.869 114.095C346.748 113.976 346.653 113.834 346.587 113.677C346.522 113.521 346.487 113.353 346.487 113.183C346.486 113.014 346.519 112.846 346.583 112.689C346.648 112.532 346.742 112.389 346.862 112.268C346.982 112.148 347.124 112.052 347.28 111.987C347.437 111.921 347.605 111.887 347.775 111.887H390.177C390.518 111.884 390.847 112.015 391.092 112.252C391.337 112.489 391.48 112.813 391.489 113.154C391.491 113.327 391.458 113.499 391.393 113.659C391.328 113.819 391.231 113.965 391.109 114.087C390.987 114.21 390.842 114.307 390.681 114.373C390.521 114.438 390.35 114.472 390.177 114.47Z" fill="url(#paint52_linear_12_241)"/>
<path d="M405.1 130.958C405.1 130.958 402.966 131.526 401.737 130.312C400.508 129.098 401.144 125.198 401.144 125.198L423.22 98.4393L423.657 105.962L405.1 130.958Z" fill="url(#paint53_linear_12_241)"/>
<path d="M541.563 131.778H497.693V147.999H541.563V131.778Z" fill="#7253C6"/>
<path d="M610.332 14.7975V175.666C610.333 177.287 610.015 178.892 609.395 180.391C608.775 181.889 607.867 183.251 606.721 184.398C605.574 185.545 604.213 186.455 602.715 187.077C601.217 187.699 599.611 188.019 597.989 188.02H556.986V14.7975H610.332Z" fill="#7253C6"/>
<path d="M610.332 60.4865H556.986V132.478H610.332V60.4865Z" fill="url(#paint54_linear_12_241)"/>
<path d="M435.159 131.783C435.159 131.783 438.429 136.309 440.529 136.416C442.628 136.523 455.291 114.009 455.291 114.009L458.066 111.877C458.066 111.877 452.045 110.906 451.234 112.008C450.422 113.11 441.073 128.52 441.073 128.52L439.741 127.845L435.159 131.783Z" fill="url(#paint55_linear_12_241)"/>
<path d="M410.887 154.152C410.887 154.152 409.915 160.344 410.887 162.893C411.859 165.443 420.411 180.658 420.411 180.658L418.205 203.969H425.164L428.521 180.658L424.678 162.893L429.202 152.938L410.887 154.152Z" fill="#25233A"/>
<path d="M417.355 161.519L432.307 187.501L434.139 207.189L440.859 205.557L439.742 181.464L430.242 152.457L415.664 153.836C415.664 153.836 416.023 159.392 417.355 161.519Z" fill="#3F3D56"/>
<path d="M435.091 206.96C435.091 206.96 435.878 212.04 436.238 212.409C436.597 212.778 439.416 212.055 439.416 212.055L444.076 209.049C444.076 209.049 444.076 207.592 440.567 208.446C440.567 208.446 439.003 208.539 438.886 206.018L435.091 206.96Z" fill="url(#paint56_linear_12_241)"/>
<path d="M425.164 203.935L424.678 206.261L428.657 209.044C428.657 209.044 428.497 209.777 427.088 210.102C425.679 210.428 419.401 209.903 419.313 209.272C419.226 208.641 420.324 206.64 420.411 206.421C420.499 206.203 420.936 203.935 420.936 203.935H425.164Z" fill="url(#paint57_linear_12_241)"/>
<path d="M416.12 111.095C416.12 111.095 409.721 112.649 408.856 114.728C407.991 116.806 400.969 123.299 401.144 125.858C401.319 128.418 406.135 131.715 406.135 131.715L409.818 128.126L410.231 152.379C410.241 152.965 410.434 153.534 410.782 154.006C411.13 154.477 411.617 154.829 412.175 155.011C414.944 155.91 417.928 155.73 421.747 154.468C427.185 152.671 430.358 152.85 430.358 152.85L429.42 127.111L433.842 132.871L439.741 127.816C439.741 127.816 431.077 113.732 429.6 112.858C428.123 111.984 421.509 110.998 421.509 110.998C421.509 110.998 418.589 112.77 416.12 111.095Z" fill="#7253C6"/>
<path d="M416.12 111.095C416.12 111.095 409.721 112.649 408.856 114.728C407.991 116.806 400.969 123.299 401.144 125.858C401.319 128.418 406.135 131.715 406.135 131.715L409.818 128.126L410.231 152.379C410.241 152.965 410.434 153.534 410.782 154.006C411.13 154.477 411.617 154.829 412.175 155.011C414.944 155.91 417.928 155.73 421.747 154.468C427.185 152.671 430.358 152.85 430.358 152.85L429.42 127.111L433.842 132.871L439.741 127.816C439.741 127.816 431.077 113.732 429.6 112.858C428.123 111.984 421.509 110.998 421.509 110.998C421.509 110.998 418.589 112.77 416.12 111.095Z" fill="url(#paint58_linear_12_241)"/>
<path d="M424.435 96.8124C424.765 98.6335 424.969 100.475 425.047 102.324C425.12 103.017 425.081 103.718 424.93 104.398C424.851 104.738 424.696 105.055 424.476 105.326C424.257 105.597 423.978 105.814 423.662 105.962C423.252 106.055 422.854 106.19 422.472 106.365C422.189 106.569 421.989 106.867 421.908 107.205C421.796 107.848 421.796 108.505 421.908 109.148C422.009 109.795 421.865 110.456 421.505 111.003C421.18 111.346 420.763 111.587 420.304 111.697C419.217 112.038 418.058 112.085 416.946 111.833C416.771 111.804 416.604 111.734 416.461 111.629C416.31 111.477 416.201 111.288 416.145 111.08C415.741 109.84 415.417 108.574 415.173 107.292C414.719 105.501 414.441 103.67 414.342 101.824C414.246 99.9672 414.724 98.1257 415.712 96.5501C416.752 95.0203 418.54 93.9325 420.387 94.0539C421.413 94.1797 422.409 94.4821 423.332 94.9475C424.095 95.3166 424.269 95.9771 424.435 96.8124Z" fill="url(#paint59_linear_12_241)"/>
<path d="M424.435 94.2919C424.483 93.374 423.754 92.6067 423.021 92.0579C422.881 91.9672 422.758 91.854 422.656 91.7228C422.554 91.5188 422.476 91.3037 422.423 91.0818C422.127 90.2465 421.135 89.8726 420.246 89.8726C419.357 89.8726 418.487 90.1397 417.603 90.1154C416.903 90.1154 416.145 89.9017 415.523 90.1979C415.154 90.3968 414.839 90.6817 414.604 91.0284C414.162 91.5382 413.852 92.1484 413.701 92.8058C413.671 93.1021 413.632 93.3983 413.574 93.6945C413.472 94.0227 413.307 94.3279 413.088 94.593C412.165 95.8605 410.819 96.9241 410.489 98.4538C410.28 99.4251 410.071 100.542 410.537 101.416C415.061 109.832 416.208 110.318 416.694 110.235C417.18 110.153 419.716 110.051 419.984 106.836C420.046 106.62 420.067 106.394 420.047 106.171C419.98 105.987 419.872 105.821 419.731 105.685C419.41 105.369 419.144 105.001 418.944 104.597C418.844 104.396 418.791 104.174 418.791 103.949C418.791 103.724 418.844 103.502 418.944 103.301C419.028 103.175 419.137 103.066 419.263 102.983C419.39 102.899 419.532 102.841 419.681 102.812C419.83 102.783 419.983 102.784 420.132 102.814C420.28 102.845 420.422 102.904 420.547 102.99C420.629 103.042 420.702 103.106 420.766 103.179C421.067 102.32 420.173 101.348 420.542 100.513C420.761 100.027 421.378 99.7602 421.592 99.2503C421.874 98.5704 421.368 97.6282 421.908 97.128C422.089 97.0028 422.281 96.8939 422.481 96.8026C422.787 96.6132 422.851 96.3607 423.001 96.0645C423.152 95.7682 423.191 95.7974 423.516 95.6274C423.77 95.501 423.988 95.312 424.148 95.0784C424.309 94.8447 424.408 94.5741 424.435 94.2919Z" fill="#3F3D56"/>
<path d="M436.617 209.617C437.623 209.374 438.23 208.369 439.076 207.767C439.273 207.617 439.5 207.513 439.741 207.461C440.017 207.439 440.295 207.453 440.567 207.499C441.272 207.563 441.977 207.402 442.686 207.402C443.038 207.402 443.388 207.441 443.731 207.519C444.094 207.585 444.432 207.754 444.703 208.005C444.837 208.131 444.93 208.295 444.969 208.476C445.008 208.656 444.991 208.844 444.921 209.015C444.803 209.215 444.636 209.382 444.435 209.5C442.816 210.617 441.18 211.731 439.528 212.841C439.041 213.207 438.5 213.493 437.924 213.691C437.379 213.845 436.8 213.834 436.262 213.657C436.045 213.599 435.849 213.479 435.698 213.313C435.586 213.157 435.509 212.98 435.47 212.793C435.281 212.113 434.916 211.132 435.052 210.418C435.188 209.704 436.043 209.758 436.617 209.617Z" fill="#3F3D56"/>
<path d="M419.512 207.271L418.934 209.214C418.871 209.35 418.839 209.498 418.839 209.648C418.839 209.798 418.871 209.947 418.934 210.083C419.096 210.265 419.319 210.383 419.561 210.413C420.13 210.572 420.712 210.682 421.3 210.744C422.199 210.807 423.093 210.637 423.988 210.661C425.003 210.69 426.033 210.972 427.01 210.71C427.603 210.51 428.16 210.215 428.657 209.835L429.595 209.189C429.673 209.149 429.734 209.082 429.765 209C429.799 208.879 429.702 208.762 429.605 208.68C428.895 208.068 427.914 207.907 427.039 207.563C426.24 207.246 425.516 206.764 424.916 206.149C424.801 206.005 424.645 205.898 424.469 205.843C424.177 205.785 423.924 206.038 423.672 206.198C423.158 206.471 422.571 206.575 421.995 206.494C421.563 206.431 421.548 206.208 421.281 205.926C420.445 205.066 419.707 206.616 419.512 207.271Z" fill="#3F3D56"/>
</g>
<defs>
<linearGradient id="paint0_linear_12_241" x1="119.609" y1="238.95" x2="159.949" y2="254.313" gradientUnits="userSpaceOnUse">
<stop offset="0.01"/>
<stop offset="0.12" stop-opacity="0.75"/>
<stop offset="1" stop-opacity="0"/>
</linearGradient>
<linearGradient id="paint1_linear_12_241" x1="9315.27" y1="20321.4" x2="8188.32" y2="13624.4" gradientUnits="userSpaceOnUse">
<stop offset="0.01"/>
<stop offset="0.12" stop-opacity="0.75"/>
<stop offset="1" stop-opacity="0"/>
</linearGradient>
<linearGradient id="paint2_linear_12_241" x1="10468.5" y1="16801.8" x2="11765.9" y2="13114.1" gradientUnits="userSpaceOnUse">
<stop offset="0.01"/>
<stop offset="0.12" stop-opacity="0.75"/>
<stop offset="1" stop-opacity="0"/>
</linearGradient>
<linearGradient id="paint3_linear_12_241" x1="41713.8" y1="12059.3" x2="40818.3" y2="20671" gradientUnits="userSpaceOnUse">
<stop offset="0.01"/>
<stop offset="0.12" stop-opacity="0.75"/>
<stop offset="1" stop-opacity="0"/>
</linearGradient>
<linearGradient id="paint4_linear_12_241" x1="5385.64" y1="12438.5" x2="7442.31" y2="23476.7" gradientUnits="userSpaceOnUse">
<stop offset="0.01"/>
<stop offset="0.12" stop-opacity="0.75"/>
<stop offset="1" stop-opacity="0"/>
</linearGradient>
<linearGradient id="paint5_linear_12_241" x1="30235.6" y1="3069.31" x2="30236.2" y2="2784.07" gradientUnits="userSpaceOnUse">
<stop offset="0.01"/>
<stop offset="0.12" stop-opacity="0.75"/>
<stop offset="1" stop-opacity="0"/>
</linearGradient>
<linearGradient id="paint6_linear_12_241" x1="29510.3" y1="16267.2" x2="29645" y2="10497.7" gradientUnits="userSpaceOnUse">
<stop offset="0.01"/>
<stop offset="0.12" stop-opacity="0.75"/>
<stop offset="1" stop-opacity="0"/>
</linearGradient>
<linearGradient id="paint7_linear_12_241" x1="286.302" y1="360.249" x2="302.852" y2="361.571" gradientUnits="userSpaceOnUse">
<stop stop-color="#ECC4D7"/>
<stop offset="0.42" stop-color="#EFD4D1"/>
<stop offset="1" stop-color="#F2EAC9"/>
</linearGradient>
<linearGradient id="paint8_linear_12_241" x1="358.829" y1="449.78" x2="358.486" y2="473.19" gradientUnits="userSpaceOnUse">
<stop/>
<stop offset="0.99" stop-opacity="0"/>
</linearGradient>
<linearGradient id="paint9_linear_12_241" x1="2226.48" y1="2242.29" x2="2222.74" y2="2494.65" gradientUnits="userSpaceOnUse">
<stop/>
<stop offset="0.99" stop-opacity="0"/>
</linearGradient>
<linearGradient id="paint10_linear_12_241" x1="3349.51" y1="2257.41" x2="3345.78" y2="2509.77" gradientUnits="userSpaceOnUse">
<stop/>
<stop offset="0.99" stop-opacity="0"/>
</linearGradient>
<linearGradient id="paint11_linear_12_241" x1="3669.08" y1="2261.71" x2="3665.38" y2="2514.07" gradientUnits="userSpaceOnUse">
<stop/>
<stop offset="0.99" stop-opacity="0"/>
</linearGradient>
<linearGradient id="paint12_linear_12_241" x1="-9201.09" y1="6461.55" x2="-8916.44" y2="6571.62" gradientUnits="userSpaceOnUse">
<stop stop-color="#ECC4D7"/>
<stop offset="0.42" stop-color="#EFD4D1"/>
<stop offset="1" stop-color="#F2EAC9"/>
</linearGradient>
<linearGradient id="paint13_linear_12_241" x1="450.908" y1="2866.33" x2="529.228" y2="2866.33" gradientUnits="userSpaceOnUse">
<stop/>
<stop offset="0.99" stop-opacity="0"/>
</linearGradient>
<linearGradient id="paint14_linear_12_241" x1="1908.09" y1="2254.76" x2="2049.27" y2="2254.76" gradientUnits="userSpaceOnUse">
<stop/>
<stop offset="0.99" stop-opacity="0"/>
</linearGradient>
<linearGradient id="paint15_linear_12_241" x1="6153.42" y1="20857.2" x2="9553.2" y2="23924.6" gradientUnits="userSpaceOnUse">
<stop/>
<stop offset="0.99" stop-opacity="0"/>
</linearGradient>
<linearGradient id="paint16_linear_12_241" x1="5212" y1="-2226.76" x2="10512.1" y2="-1310.69" gradientUnits="userSpaceOnUse">
<stop/>
<stop offset="0.99" stop-opacity="0"/>
</linearGradient>
<linearGradient id="paint17_linear_12_241" x1="291.918" y1="350.394" x2="352.441" y2="353.831" gradientUnits="userSpaceOnUse">
<stop offset="0.01"/>
<stop offset="0.99" stop-opacity="0"/>
</linearGradient>
<linearGradient id="paint18_linear_12_241" x1="-1470.82" y1="-9687.8" x2="14341.1" y2="-10571.7" gradientUnits="userSpaceOnUse">
<stop/>
<stop offset="0.99" stop-opacity="0"/>
</linearGradient>
<linearGradient id="paint19_linear_12_241" x1="9830.24" y1="19787.8" x2="13040.3" y2="17275.8" gradientUnits="userSpaceOnUse">
<stop/>
<stop offset="0.99" stop-opacity="0"/>
</linearGradient>
<linearGradient id="paint20_linear_12_241" x1="6568.56" y1="21390.8" x2="10418.2" y2="19799.7" gradientUnits="userSpaceOnUse">
<stop/>
<stop offset="0.99" stop-opacity="0"/>
</linearGradient>
<linearGradient id="paint21_linear_12_241" x1="6156.76" y1="4349.3" x2="4653.21" y2="3956.1" gradientUnits="userSpaceOnUse">
<stop/>
<stop offset="0.99" stop-opacity="0"/>
</linearGradient>
<linearGradient id="paint22_linear_12_241" x1="1216.2" y1="5403.84" x2="704.191" y2="5094.66" gradientUnits="userSpaceOnUse">
<stop/>
<stop offset="0.99" stop-opacity="0"/>
</linearGradient>
<linearGradient id="paint23_linear_12_241" x1="3300.1" y1="-2102.24" x2="3567.16" y2="-2102.24" gradientUnits="userSpaceOnUse">
<stop stop-color="#ECC4D7"/>
<stop offset="0.42" stop-color="#EFD4D1"/>
<stop offset="1" stop-color="#F2EAC9"/>
</linearGradient>
<linearGradient id="paint24_linear_12_241" x1="4843.56" y1="-5756.84" x2="4695.24" y2="-1407.34" gradientUnits="userSpaceOnUse">
<stop/>
<stop offset="0.99" stop-opacity="0"/>
</linearGradient>
<linearGradient id="paint25_linear_12_241" x1="8353.76" y1="-5639.19" x2="8205.56" y2="-1291.42" gradientUnits="userSpaceOnUse">
<stop/>
<stop offset="0.99" stop-opacity="0"/>
</linearGradient>
<linearGradient id="paint26_linear_12_241" x1="26100.7" y1="118.456" x2="26102.3" y2="299.657" gradientUnits="userSpaceOnUse">
<stop/>
<stop offset="0.99" stop-opacity="0"/>
</linearGradient>
<linearGradient id="paint27_linear_12_241" x1="14953.6" y1="126.901" x2="14953.6" y2="290.183" gradientUnits="userSpaceOnUse">
<stop/>
<stop offset="0.99" stop-opacity="0"/>
</linearGradient>
<linearGradient id="paint28_linear_12_241" x1="73610.7" y1="5696.54" x2="72851.4" y2="15940.7" gradientUnits="userSpaceOnUse">
<stop offset="0.01"/>
<stop offset="0.99" stop-opacity="0"/>
</linearGradient>
<linearGradient id="paint29_linear_12_241" x1="441.471" y1="313.009" x2="440.553" y2="388.284" gradientUnits="userSpaceOnUse">
<stop stop-color="white"/>
<stop offset="0.09" stop-color="white" stop-opacity="0.95"/>
<stop offset="0.25" stop-color="white" stop-opacity="0.83"/>
<stop offset="0.46" stop-color="white" stop-opacity="0.63"/>
<stop offset="0.71" stop-color="white" stop-opacity="0.35"/>
<stop offset="0.99" stop-color="white" stop-opacity="0"/>
<stop offset="1" stop-color="white" stop-opacity="0"/>
</linearGradient>
<linearGradient id="paint30_linear_12_241" x1="25524.2" y1="-48355.3" x2="5581.3" y2="-46305.4" gradientUnits="userSpaceOnUse">
<stop stop-color="white"/>
<stop offset="0.09" stop-color="white" stop-opacity="0.95"/>
<stop offset="0.25" stop-color="white" stop-opacity="0.83"/>
<stop offset="0.46" stop-color="white" stop-opacity="0.63"/>
<stop offset="0.71" stop-color="white" stop-opacity="0.35"/>
<stop offset="0.99" stop-color="white" stop-opacity="0"/>
<stop offset="1" stop-color="white" stop-opacity="0"/>
</linearGradient>
<linearGradient id="paint31_linear_12_241" x1="108296" y1="1749.77" x2="108296" y2="1609.15" gradientUnits="userSpaceOnUse">
<stop/>
<stop offset="0.99" stop-opacity="0"/>
</linearGradient>
<linearGradient id="paint32_linear_12_241" x1="671.435" y1="-15568.2" x2="11218.6" y2="-6619.5" gradientUnits="userSpaceOnUse">
<stop stop-color="white"/>
<stop offset="0.09" stop-color="white" stop-opacity="0.95"/>
<stop offset="0.25" stop-color="white" stop-opacity="0.83"/>
<stop offset="0.46" stop-color="white" stop-opacity="0.63"/>
<stop offset="0.71" stop-color="white" stop-opacity="0.35"/>
<stop offset="0.99" stop-color="white" stop-opacity="0"/>
<stop offset="1" stop-color="white" stop-opacity="0"/>
</linearGradient>
<linearGradient id="paint33_linear_12_241" x1="469.305" y1="215.42" x2="476.984" y2="20.6053" gradientUnits="userSpaceOnUse">
<stop stop-color="white" stop-opacity="0"/>
<stop offset="1" stop-color="white"/>
</linearGradient>
<linearGradient id="paint34_linear_12_241" x1="411.198" y1="110.571" x2="536.981" y2="110.571" gradientUnits="userSpaceOnUse">
<stop stop-color="#183866"/>
<stop offset="1" stop-color="#1A7FC1"/>
</linearGradient>
<linearGradient id="paint35_linear_12_241" x1="477.727" y1="60.8167" x2="477.727" y2="258.603" gradientUnits="userSpaceOnUse">
<stop stop-opacity="0"/>
<stop offset="0.97"/>
</linearGradient>
<linearGradient id="paint36_linear_12_241" x1="4552.81" y1="8519.04" x2="5022.16" y2="8519.04" gradientUnits="userSpaceOnUse">
<stop stop-color="#183866"/>
<stop offset="1" stop-color="#1A7FC1"/>
</linearGradient>
<linearGradient id="paint37_linear_12_241" x1="1239.31" y1="26296.4" x2="1256.98" y2="26296.4" gradientUnits="userSpaceOnUse">
<stop stop-opacity="0"/>
<stop offset="0.97"/>
</linearGradient>
<linearGradient id="paint38_linear_12_241" x1="1385.29" y1="26296.4" x2="1402.95" y2="26296.4" gradientUnits="userSpaceOnUse">
<stop stop-opacity="0"/>
<stop offset="0.97"/>
</linearGradient>
<linearGradient id="paint39_linear_12_241" x1="4051.54" y1="-857.035" x2="4946.27" y2="-857.035" gradientUnits="userSpaceOnUse">
<stop stop-opacity="0"/>
<stop offset="0.97"/>
</linearGradient>
<linearGradient id="paint40_linear_12_241" x1="4051.54" y1="-729.687" x2="4946.27" y2="-729.687" gradientUnits="userSpaceOnUse">
<stop stop-opacity="0"/>
<stop offset="0.97"/>
</linearGradient>
<linearGradient id="paint41_linear_12_241" x1="4051.54" y1="-602.402" x2="4946.27" y2="-602.402" gradientUnits="userSpaceOnUse">
<stop stop-opacity="0"/>
<stop offset="0.97"/>
</linearGradient>
<linearGradient id="paint42_linear_12_241" x1="4051.54" y1="-475.017" x2="4946.27" y2="-475.017" gradientUnits="userSpaceOnUse">
<stop stop-opacity="0"/>
<stop offset="0.97"/>
</linearGradient>
<linearGradient id="paint43_linear_12_241" x1="4051.54" y1="-347.735" x2="4946.27" y2="-347.735" gradientUnits="userSpaceOnUse">
<stop stop-opacity="0"/>
<stop offset="0.97"/>
</linearGradient>
<linearGradient id="paint44_linear_12_241" x1="4051.54" y1="-220.389" x2="4946.27" y2="-220.389" gradientUnits="userSpaceOnUse">
<stop stop-opacity="0"/>
<stop offset="0.97"/>
</linearGradient>
<linearGradient id="paint45_linear_12_241" x1="471.701" y1="4.65243" x2="489.774" y2="48.052" gradientUnits="userSpaceOnUse">
<stop stop-color="white" stop-opacity="0"/>
<stop offset="1" stop-color="white"/>
</linearGradient>
<linearGradient id="paint46_linear_12_241" x1="351.774" y1="0.59248" x2="351.56" y2="8.16847" gradientUnits="userSpaceOnUse">
<stop stop-color="#A8EEFD"/>
<stop offset="1" stop-color="#E7FAFF"/>
</linearGradient>
<linearGradient id="paint47_linear_12_241" x1="961.366" y1="2330.35" x2="959.658" y2="2269.75" gradientUnits="userSpaceOnUse">
<stop stop-color="#A8EEFD"/>
<stop offset="1" stop-color="#E7FAFF"/>
</linearGradient>
<linearGradient id="paint48_linear_12_241" x1="618.021" y1="-2042.09" x2="616.308" y2="-1981.33" gradientUnits="userSpaceOnUse">
<stop stop-color="#A8EEFD"/>
<stop offset="1" stop-color="#E7FAFF"/>
</linearGradient>
<linearGradient id="paint49_linear_12_241" x1="413.511" y1="34.1357" x2="386.664" y2="38.4677" gradientUnits="userSpaceOnUse">
<stop stop-color="#68E1FD"/>
<stop offset="0.08" stop-color="#84E6FD"/>
<stop offset="0.21" stop-color="#A9EEFE"/>
<stop offset="0.35" stop-color="#C8F4FE"/>
<stop offset="0.49" stop-color="#E0F9FF"/>
<stop offset="0.64" stop-color="#F2FCFF"/>
<stop offset="0.8" stop-color="#FCFEFF"/>
<stop offset="1" stop-color="white"/>
</linearGradient>
<linearGradient id="paint50_linear_12_241" x1="12547.5" y1="1315.76" x2="12257.5" y2="506.044" gradientUnits="userSpaceOnUse">
<stop stop-color="#68E1FD"/>
<stop offset="0.08" stop-color="#84E6FD"/>
<stop offset="0.21" stop-color="#A9EEFE"/>
<stop offset="0.35" stop-color="#C8F4FE"/>
<stop offset="0.49" stop-color="#E0F9FF"/>
<stop offset="0.64" stop-color="#F2FCFF"/>
<stop offset="0.8" stop-color="#FCFEFF"/>
<stop offset="1" stop-color="white"/>
</linearGradient>
<linearGradient id="paint51_linear_12_241" x1="12896.2" y1="1223.21" x2="12602.5" y2="409.075" gradientUnits="userSpaceOnUse">
<stop stop-color="#68E1FD"/>
<stop offset="0.08" stop-color="#84E6FD"/>
<stop offset="0.21" stop-color="#A9EEFE"/>
<stop offset="0.35" stop-color="#C8F4FE"/>
<stop offset="0.49" stop-color="#E0F9FF"/>
<stop offset="0.64" stop-color="#F2FCFF"/>
<stop offset="0.8" stop-color="#FCFEFF"/>
<stop offset="1" stop-color="white"/>
</linearGradient>
<linearGradient id="paint52_linear_12_241" x1="13249.4" y1="1108.29" x2="12962.3" y2="302.002" gradientUnits="userSpaceOnUse">
<stop stop-color="#68E1FD"/>
<stop offset="0.08" stop-color="#84E6FD"/>
<stop offset="0.21" stop-color="#A9EEFE"/>
<stop offset="0.35" stop-color="#C8F4FE"/>
<stop offset="0.49" stop-color="#E0F9FF"/>
<stop offset="0.64" stop-color="#F2FCFF"/>
<stop offset="0.8" stop-color="#FCFEFF"/>
<stop offset="1" stop-color="white"/>
</linearGradient>
<linearGradient id="paint53_linear_12_241" x1="400.979" y1="114.766" x2="423.662" y2="114.766" gradientUnits="userSpaceOnUse">
<stop stop-color="#ECC4D7"/>
<stop offset="0.42" stop-color="#EFD4D1"/>
<stop offset="1" stop-color="#F2EAC9"/>
</linearGradient>
<linearGradient id="paint54_linear_12_241" x1="32976" y1="-28549.8" x2="19668.2" y2="-28697.2" gradientUnits="userSpaceOnUse">
<stop stop-color="white" stop-opacity="0"/>
<stop offset="1" stop-color="white"/>
</linearGradient>
<linearGradient id="paint55_linear_12_241" x1="7490.42" y1="8712.34" x2="8571.16" y2="8712.34" gradientUnits="userSpaceOnUse">
<stop stop-color="#ECC4D7"/>
<stop offset="0.42" stop-color="#EFD4D1"/>
<stop offset="1" stop-color="#F2EAC9"/>
</linearGradient>
<linearGradient id="paint56_linear_12_241" x1="3201.16" y1="1305.32" x2="3367.29" y2="1305.32" gradientUnits="userSpaceOnUse">
<stop stop-color="#ECC4D7"/>
<stop offset="0.42" stop-color="#EFD4D1"/>
<stop offset="1" stop-color="#F2EAC9"/>
</linearGradient>
<linearGradient id="paint57_linear_12_241" x1="2993.84" y1="1293.02" x2="3174.19" y2="1293.02" gradientUnits="userSpaceOnUse">
<stop stop-color="#ECC4D7"/>
<stop offset="0.42" stop-color="#EFD4D1"/>
<stop offset="1" stop-color="#F2EAC9"/>
</linearGradient>
<linearGradient id="paint58_linear_12_241" x1="397.879" y1="140.131" x2="413.252" y2="135.158" gradientUnits="userSpaceOnUse">
<stop stop-color="white" stop-opacity="0"/>
<stop offset="1" stop-color="#E7FAFF"/>
</linearGradient>
<linearGradient id="paint59_linear_12_241" x1="3338.03" y1="7050.13" x2="3525.03" y2="7063.65" gradientUnits="userSpaceOnUse">
<stop stop-color="#ECC4D7"/>
<stop offset="0.42" stop-color="#EFD4D1"/>
<stop offset="1" stop-color="#F2EAC9"/>
</linearGradient>
<clipPath id="clip0_12_241">
<rect width="340" height="254" fill="white" transform="translate(0 68)"/>
</clipPath>
<clipPath id="clip1_12_241">
<rect width="334" height="239.567" fill="white" transform="translate(215 246.433)"/>
</clipPath>
<clipPath id="clip2_12_241">
<rect width="328" height="276" fill="white" transform="translate(282)"/>
</clipPath>
</defs>
</svg>
