<svg width="505" height="436" viewBox="0 0 505 436" fill="none" xmlns="http://www.w3.org/2000/svg">
<g id="DevelopeImg">
<g id="CodeBoard">
<path id="Vector" d="M262.621 0.831375H0.8125V211.183H262.621V0.831375Z" fill="#24285B"/>
<path id="Vector_2" d="M183.285 55.0729H82.7928V64.3336H183.285V55.0729Z" fill="white"/>
<path id="Vector_3" d="M226.208 132.801H184.412V142.842H226.208V132.801Z" fill="#FFD200"/>
<path id="Vector_4" d="M201.797 104.023H142.295V114.606H201.797V104.023Z" fill="#FFD200"/>
<path id="Vector_5" d="M221.631 78.8863H107.916V89.47H221.631V78.8863Z" fill="#7253C6"/>
<path id="Vector_6" d="M89.2486 78.9902H49.0854V89.0312H89.2486V78.9902Z" fill="white"/>
<path id="Vector_7" d="M129.246 105.396H89.0826V115.437H129.246V105.396Z" fill="white"/>
<path id="Vector_8" d="M91.2143 159.262H51.0511V169.303H91.2143V159.262Z" fill="white"/>
<path id="Vector_9" d="M63.5621 54.6923H23.3989V64.7332H63.5621V54.6923Z" fill="#FFD200"/>
<path id="Vector_10" d="M17.4461 22.2243C20.0602 22.2243 22.1793 20.1007 22.1793 17.4812C22.1793 14.8616 20.0602 12.7381 17.4461 12.7381C14.832 12.7381 12.7129 14.8616 12.7129 17.4812C12.7129 20.1007 14.832 22.2243 17.4461 22.2243Z" fill="white"/>
<path id="Vector_11" d="M31.5074 22.2243C34.1215 22.2243 36.2406 20.1007 36.2406 17.4812C36.2406 14.8616 34.1215 12.7381 31.5074 12.7381C28.8933 12.7381 26.7742 14.8616 26.7742 17.4812C26.7742 20.1007 28.8933 22.2243 31.5074 22.2243Z" fill="#7253C6"/>
<path id="Vector_12" d="M44.738 22.2243C47.3521 22.2243 49.4712 20.1007 49.4712 17.4812C49.4712 14.8616 47.3521 12.7381 44.738 12.7381C42.1239 12.7381 40.0048 14.8616 40.0048 17.4812C40.0048 20.1007 42.1239 22.2243 44.738 22.2243Z" fill="#FFD200"/>
<path id="Vector_13" d="M64.6971 132.801H24.5339V142.842H64.6971V132.801Z" fill="white"/>
<path id="Vector_14" d="M163.458 132.801H80.7233V142.842H163.458V132.801Z" fill="#7253C6"/>
<path id="Vector_15" d="M189.837 159.207H107.102V169.248H189.837V159.207Z" fill="#7253C6"/>
</g>
<g id="Main">
<g id="cloud3">
<path id="Vector_16" d="M504.596 283.07C504.6 285.092 504.189 287.093 503.389 288.949C502.589 290.805 501.417 292.478 499.945 293.862C497.424 296.258 494.171 297.736 490.709 298.057C490.062 298.112 489.412 298.112 488.765 298.057L380.312 295.872C376.155 295.827 372.178 294.16 369.23 291.227C366.282 288.293 364.594 284.324 364.526 280.164C364.518 278.143 364.923 276.142 365.715 274.282C366.507 272.423 367.67 270.745 369.133 269.351C372.144 266.486 376.158 264.918 380.312 264.981H384.003C383.239 262.302 382.85 259.531 382.845 256.745C382.839 252.764 383.646 248.823 385.215 245.164C386.784 241.505 389.084 238.206 391.972 235.467C394.521 233.028 397.477 231.054 400.706 229.634C404.89 227.81 409.419 226.915 413.982 227.012L423.196 227.209C428.928 227.326 434.524 228.981 439.398 232.002C444.272 235.023 448.246 239.298 450.904 244.38C453.561 243.116 456.478 242.495 459.42 242.567H461.8C466.736 242.617 471.458 244.593 474.96 248.073C478.463 251.553 480.471 256.264 480.556 261.202V262.098C480.554 263.8 480.304 265.492 479.813 267.122L488.787 267.297C492.955 267.353 496.937 269.032 499.888 271.976C502.839 274.921 504.528 278.9 504.596 283.07Z" fill="white"/>
<path id="Vector_17" d="M490.709 298.057C490.062 298.112 489.412 298.112 488.765 298.057L380.312 295.872C376.155 295.827 372.178 294.16 369.23 291.227C366.282 288.293 364.594 284.324 364.526 280.164C364.518 278.143 364.923 276.142 365.715 274.282C366.507 272.423 367.67 270.745 369.133 269.351C364.766 296.156 392.824 292.311 392.824 292.311H463.284L490.709 298.057Z" fill="url(#paint0_linear_151_2)"/>
<path id="Vector_18" d="M391.95 268.215L384.068 265.222C383.305 262.543 382.915 259.771 382.911 256.986C382.905 253.004 383.711 249.063 385.28 245.404C386.85 241.746 389.149 238.446 392.038 235.707C394.587 233.268 397.542 231.294 400.771 229.874C378.959 248.575 391.95 268.215 391.95 268.215Z" fill="url(#paint1_linear_151_2)"/>
</g>
<path id="globe_shadow" opacity="0.23" d="M260.374 435.601C336.997 435.601 399.112 379.468 399.112 310.225C399.112 240.982 336.997 184.849 260.374 184.849C183.751 184.849 121.636 240.982 121.636 310.225C121.636 379.468 183.751 435.601 260.374 435.601Z" fill="#7253C6"/>
<path id="Vector_19" d="M432.628 289.449C432.665 318.556 423.196 346.879 405.663 370.106L405.379 370.499C386.166 395.834 358.577 413.511 327.54 420.373C296.503 427.234 264.039 422.834 235.945 407.957C207.852 393.08 185.959 368.696 174.176 339.159C162.393 309.622 161.488 276.857 171.622 246.714C181.757 216.571 202.27 191.014 229.5 174.608C256.729 158.201 288.901 152.013 320.27 157.149C351.638 162.285 380.16 178.411 400.742 202.646C421.324 226.88 432.626 257.647 432.628 289.449Z" fill="#7253C6"/>
<path id="Vector_20" d="M255.505 223.495C248.147 226.532 240.024 227.253 232.469 229.743C224.915 232.234 217.338 237.258 215.395 245.036C214.39 248.946 214.914 253.294 212.993 256.833C210.438 261.595 204.456 263.387 200.831 267.319C193.931 274.921 198.473 287.964 206.901 293.84C215.329 299.717 226.094 300.613 236.181 302.338C238.942 302.559 241.573 303.601 243.736 305.331C249.61 310.946 243.103 321.104 245.592 328.838C246.99 333.207 251.116 336.2 252.994 340.395C256.597 348.39 251.138 357.216 247.535 365.212C241.037 379.799 240.45 396.34 245.898 411.351C245.647 411.713 245.369 412.057 245.068 412.378C230.699 406.069 217.539 397.301 206.18 386.468C195.11 370.936 186.355 354.005 187.272 335.392C187.774 325.299 191.136 315.555 191.77 305.506C192.818 289.187 186.922 271.47 194.914 257.226C199.281 249.339 207.796 240.688 203.036 233.042C194.63 234.265 185.568 234.462 177.861 231.535C187.319 211.821 201.45 194.72 219.025 181.721C236.599 168.722 257.083 160.218 278.694 156.951C286.991 180.677 280.397 213.009 255.505 223.495Z" fill="url(#paint2_linear_151_2)"/>
<path id="Vector_21" d="M432.628 289.449C432.637 297.931 431.841 306.394 430.248 314.725C426.688 317.622 423.353 320.784 420.27 324.185C409.68 336.593 407.387 353.808 405.662 370.062C405.662 370.411 405.662 370.761 405.553 371.089C405.553 370.87 405.553 370.674 405.379 370.455C404.536 366.281 402.718 362.366 400.073 359.03C397.06 355.774 391.71 354.158 388.042 356.714C386.295 352.345 384.541 348.012 382.78 343.715C371.862 343.715 360.596 343.715 350.333 339.848C340.071 335.982 331.577 328.576 323.367 321.345C324.445 308.815 324.211 296.207 322.669 283.725C354.56 280.262 384.059 265.167 405.531 241.322C386.328 240.364 367.288 245.279 350.945 255.413C347.451 257.597 343.914 260.044 339.831 260.394C337.244 260.458 334.663 260.104 332.189 259.345L305.79 252.638C302.493 235.642 314.262 218.58 329.394 210.169C340.748 203.877 354.526 205.101 365.421 199.595C372.889 195.838 375.072 189.262 381.601 184.434H381.732C397.591 196.956 410.409 212.91 419.224 231.098C428.039 249.286 432.622 269.236 432.628 289.449Z" fill="url(#paint3_linear_151_2)"/>
<path id="Vector_22" d="M340.093 262.294C339.307 264.872 338.564 267.887 340.093 270.05C340.844 270.974 341.833 271.677 342.953 272.081C344.257 272.704 345.708 272.954 347.145 272.804C348.583 272.654 349.95 272.109 351.098 271.229C352.296 269.918 353.145 268.325 353.565 266.598C355.606 260.33 357.068 253.887 357.932 247.351C358.096 246.751 358.096 246.117 357.932 245.516C357.591 244.886 357.043 244.392 356.382 244.118C352.91 242.261 347.473 240.776 345.464 244.883C342.997 250.17 341.84 256.702 340.093 262.294Z" fill="#FFDAD2"/>
<path id="Vector_23" d="M350.595 265.287C351.329 265.187 352.075 265.254 352.779 265.484C353.258 265.749 353.675 266.114 354.002 266.554L361.535 275.009C362.997 276.647 364.526 278.897 363.5 280.842C363.138 281.383 362.66 281.836 362.101 282.169C361.542 282.501 360.916 282.705 360.268 282.764C356.62 283.098 352.952 282.378 349.7 280.689C347.386 279.684 345.093 278.504 342.844 277.412C341.173 276.653 339.712 275.498 338.586 274.048C336.861 271.426 336.403 265.134 339.416 263.124C340.966 262.141 342.32 262.84 343.783 263.518C345.874 264.658 348.214 265.265 350.595 265.287Z" fill="#7253C6"/>
<path id="Vector_24" d="M381.841 291.088C381.899 291.574 381.847 292.067 381.688 292.529C381.428 292.979 381.05 293.349 380.596 293.6C379.164 294.587 377.485 295.154 375.749 295.238C374.881 295.271 374.018 295.103 373.227 294.746C372.435 294.39 371.736 293.856 371.185 293.185C370.382 291.913 369.895 290.467 369.766 288.969C369.126 285.746 368.812 282.467 368.827 279.181C368.789 278.988 368.793 278.789 368.84 278.598C368.887 278.407 368.974 278.228 369.097 278.074C369.219 277.92 369.374 277.795 369.55 277.707C369.726 277.619 369.919 277.571 370.115 277.565C372.823 276.997 378.216 275.577 379.592 278.897C380.993 282.813 381.753 286.93 381.841 291.088Z" fill="#FFDAD2"/>
<path id="Vector_25" d="M393.304 290.76C395.631 290.886 397.93 291.327 400.138 292.071C401.236 292.451 402.244 293.052 403.1 293.837C403.957 294.623 404.643 295.575 405.117 296.637C405.558 297.675 405.612 298.838 405.269 299.913C404.515 301.509 403.191 302.764 401.557 303.431C393.797 307.557 385.042 309.441 376.273 308.87C374.023 308.961 371.824 308.178 370.137 306.686C368.919 304.882 368.35 302.717 368.522 300.547L368.216 290.279C370.192 290.367 372.12 290.913 373.849 291.874C377.081 292.966 378.347 290.345 381.011 289.689C384.483 288.881 389.767 290.41 393.304 290.76Z" fill="#7253C6"/>
<path id="Vector_26" d="M350.595 265.287C351.329 265.187 352.075 265.254 352.779 265.484C353.258 265.749 353.675 266.114 354.002 266.554L361.535 275.009C362.997 276.647 364.526 278.897 363.5 280.842C363.138 281.383 362.66 281.836 362.101 282.169C361.542 282.501 360.916 282.705 360.268 282.764C356.62 283.098 352.952 282.378 349.7 280.689C347.386 279.684 345.093 278.504 342.844 277.412C341.173 276.653 339.712 275.498 338.586 274.048C336.861 271.426 336.403 265.134 339.416 263.124C340.966 262.141 342.32 262.84 343.783 263.518C345.874 264.658 348.214 265.265 350.595 265.287Z" fill="url(#paint4_linear_151_2)"/>
<path id="Vector_27" d="M393.304 290.76C395.631 290.886 397.93 291.327 400.138 292.071C401.236 292.451 402.244 293.052 403.1 293.837C403.957 294.623 404.643 295.575 405.117 296.637C405.558 297.675 405.612 298.838 405.269 299.913C404.515 301.509 403.191 302.764 401.557 303.431C393.797 307.557 385.042 309.441 376.273 308.87C374.023 308.961 371.824 308.178 370.137 306.686C368.919 304.882 368.35 302.717 368.522 300.547L368.216 290.279C370.192 290.367 372.12 290.913 373.849 291.874C377.081 292.966 378.347 290.345 381.011 289.689C384.483 288.881 389.767 290.41 393.304 290.76Z" fill="url(#paint5_linear_151_2)"/>
<path id="Vector_28" d="M268.912 179.519C264.215 179.111 259.489 179.184 254.807 179.737C254.194 179.768 253.6 179.957 253.082 180.283C252.783 180.564 252.544 180.903 252.379 181.278C252.214 181.653 252.126 182.058 252.121 182.468C251.466 188.803 256.488 194.309 261.903 197.651C276.554 206.739 295.026 206.39 311.206 212.332C312.749 212.741 314.12 213.637 315.114 214.888C315.789 216.243 316.119 217.744 316.075 219.257C316.795 227.799 321.533 235.489 323.106 243.9C324.678 252.31 322.996 261.115 324.285 269.591C329.59 263.933 338.63 263.037 343.936 257.444C348.914 252.289 349.897 244.599 350.639 237.477L352.648 217.946C353.02 216.538 352.866 215.042 352.215 213.739C351.564 212.436 350.46 211.415 349.111 210.868C325.224 195.423 297.231 181.965 268.912 179.519Z" fill="url(#paint6_linear_151_2)"/>
<path id="Vector_29" d="M365.509 177.552C367.716 177.995 369.761 179.03 371.426 180.545C373.133 182.924 373.91 185.847 373.609 188.76C373.558 209.489 369.64 230.026 362.059 249.318C361.987 249.996 361.751 250.646 361.371 251.211C360.99 251.777 360.477 252.241 359.876 252.562C359.275 252.883 358.604 253.052 357.923 253.054C357.241 253.056 356.57 252.89 355.967 252.573C351.426 251.346 346.952 249.888 342.56 248.203L348.499 208.88C348.783 207.789 348.722 206.636 348.325 205.581C347.886 204.833 347.271 204.203 346.534 203.746C339.76 198.816 332.605 194.433 325.136 190.638C319.175 187.624 312.341 184.085 310.725 177.705C310.39 176.615 310.322 175.461 310.527 174.339C310.733 173.217 311.205 172.161 311.904 171.261C312.849 170.333 313.96 169.591 315.179 169.076C319.132 167.132 324.11 164.707 328.652 165.1C332.298 165.472 333.695 167.569 336.73 169.12C345.159 173.314 356.36 174.887 365.509 177.552Z" fill="#282328"/>
<path id="Vector_30" d="M324.939 115.007C327.865 123.068 329.306 131.61 331.883 139.758C332.447 141.918 333.459 143.935 334.852 145.679C336.705 147.456 338.948 148.773 341.403 149.524C344.824 150.849 348.303 152.007 351.84 152.997C354.198 153.631 357.015 154.723 357.277 157.126C357.332 157.928 357.166 158.729 356.796 159.442C355.884 161.069 354.57 162.436 352.98 163.411C351.39 164.386 349.577 164.938 347.713 165.013C343.993 165.112 340.289 164.505 336.796 163.221C333.615 162.577 330.697 161.003 328.411 158.699C327.112 156.783 326.199 154.631 325.725 152.364C322.142 139.637 317.17 127.344 310.9 115.706C309.024 112.632 307.556 109.327 306.533 105.875C305.092 99.8453 305.07 85.5578 311.293 90.8009C316.315 95.0391 322.734 109.021 324.939 115.007Z" fill="#FFDAD2"/>
<path id="Vector_31" d="M301.118 176.788C304.799 175.361 308.38 173.689 311.839 171.785C324.94 164.532 314.219 160.971 309.852 152.255C306.729 146.072 307.996 138.666 309.612 131.959C312.472 120.162 316.293 107.928 313.542 96.1533C313.198 94.2422 312.454 92.4256 311.358 90.8228C310.557 89.8284 309.633 88.9401 308.607 88.1794C305.842 85.7891 302.659 83.9301 299.218 82.696C292.668 80.5113 285.244 82.1061 279.021 85.2301C254.566 97.5077 249.348 128.508 250.33 153.303C250.592 160.185 251.662 167.46 256.095 172.724C260.527 177.989 266.794 179.999 273.213 180.786C282.702 181.756 292.283 180.383 301.118 176.788Z" fill="white"/>
<path id="Vector_32" d="M264.654 162.763C264.851 165.09 265.6 167.336 266.837 169.316C269.021 172.397 273.038 173.533 276.728 174.428L293.345 178.536C295.37 179.15 297.473 179.466 299.589 179.475C304.131 179.257 308.039 176.351 311.642 173.555C312.563 172.924 313.362 172.132 314 171.217C304.83 170.343 295.681 169.426 286.554 168.093C281.183 167.307 275.506 166.214 271.554 162.522C269.512 160.504 267.958 158.046 267.012 155.335C266.357 153.653 266.051 149.371 264.152 148.999C263.673 153.588 263.842 158.221 264.654 162.763Z" fill="url(#paint7_linear_151_2)"/>
<path id="Vector_33" d="M361.251 205.013C364.049 208.579 366.26 212.569 367.801 216.832C376.388 237.551 381.969 259.393 384.374 281.694C377.363 282.568 370.27 282.568 363.259 281.694C362.711 265.95 360.284 250.329 356.032 235.161C355.281 231.897 353.989 228.781 352.211 225.942C349.089 221.42 343.958 218.798 339.11 216.351C327.768 210.837 315.913 206.447 303.716 203.244C298.563 201.824 293.367 200.513 288.301 198.874C284.043 197.433 272.1 192.146 268.65 189.284C266.842 187.912 265.329 186.19 264.204 184.219C263.078 182.248 262.362 180.069 262.099 177.815C262.099 178.951 295.375 181.223 297.755 180.961C305.769 180.109 315.223 175.521 323.127 178.776C329.306 181.31 334.962 186.597 340.595 190.245C347.429 194.527 355.77 198.678 361.251 205.013Z" fill="#473F47"/>
<path id="Vector_34" d="M324.787 203.331L284.174 183.473L331.796 163.265L372.43 181.026L324.787 203.331Z" fill="#7253C6"/>
<path id="Vector_35" d="M262.929 110.091C262.929 110.856 262.732 111.599 262.645 112.276C261.444 123.461 262.536 134.428 262.951 145.548C263.213 152.429 264.108 165.537 271.423 169.054C285.091 175.608 311.467 173.118 311.467 173.118C314.526 172.627 317.651 172.753 320.66 173.489C322.298 173.992 323.804 174.844 325.398 175.455C331.162 177.64 337.604 176.548 343.674 175.455C344.72 175.331 345.73 174.997 346.643 174.472C347.702 173.531 348.349 172.21 348.443 170.796C348.537 169.381 348.071 167.987 347.145 166.913C345.175 164.842 342.612 163.43 339.809 162.872C332.143 160.368 323.932 160.051 316.096 161.954C315.095 162.292 314.074 162.569 313.04 162.784C311.827 162.981 310.599 163.069 309.371 163.047H300.07C289.371 163.047 279.283 163.178 277.667 150.66C277.071 146.024 276.954 141.338 277.318 136.678C277.951 128.267 280.156 119.922 279.698 111.511C279.67 108.844 279.004 106.222 277.755 103.865C277.121 102.695 276.199 101.707 275.075 100.995C273.951 100.284 272.663 99.8729 271.335 99.8016C269.96 99.9043 268.634 100.36 267.487 101.126C266.339 101.891 265.409 102.94 264.785 104.171C263.818 106.018 263.19 108.023 262.929 110.091Z" fill="#FFDAD2"/>
<path id="Vector_36" d="M389.155 140.96L332.385 169.863L324.787 203.331L372.43 181.026L389.155 140.96Z" fill="#7253C6"/>
<path id="Vector_37" d="M260.942 116.296C260.269 122.478 260.196 128.712 260.724 134.909C260.698 135.446 260.835 135.979 261.117 136.438C261.581 136.946 262.221 137.259 262.907 137.312C266.444 137.97 270.031 138.314 273.628 138.338C274.133 138.5 274.667 138.548 275.192 138.479C275.718 138.41 276.221 138.227 276.668 137.941C277.114 137.655 277.492 137.274 277.774 136.826C278.056 136.377 278.236 135.872 278.301 135.345C280.266 127.131 282.209 118.917 283.694 110.594C284.284 107.251 284.698 103.494 282.69 100.785C279.786 96.8523 271.947 96.4154 268.17 99.2773C263.606 102.795 261.663 111.009 260.942 116.296Z" fill="white"/>
<path id="Vector_38" d="M322.735 105.809L328.914 120.621C329.219 121.197 329.341 121.853 329.263 122.5C329.106 123.031 328.803 123.508 328.39 123.876C325.371 127.07 321.788 129.677 317.822 131.566C314.165 128.297 311.195 124.331 309.088 119.9C307.035 114.635 307.494 108.78 308.105 103.166C308.476 99.605 308.345 88.1575 314.394 92.5923C318.608 95.629 320.835 101.243 322.735 105.809Z" fill="white"/>
<g id="cloud1">
<path id="Vector_39" d="M210.962 244.752C210.964 246.771 210.555 248.769 209.759 250.625C208.963 252.48 207.798 254.154 206.333 255.544C203.81 257.936 200.558 259.412 197.097 259.738C196.45 259.771 195.801 259.771 195.154 259.738L86.7011 257.554C82.5374 257.509 78.5557 255.84 75.6032 252.902C72.6508 249.964 70.9607 245.99 70.8927 241.824C70.8907 239.805 71.3002 237.807 72.0961 235.951C72.8919 234.096 74.0576 232.422 75.5217 231.032C77.0063 229.604 78.7579 228.483 80.6763 227.733C82.5946 226.983 84.642 226.62 86.7011 226.663H90.3911C89.6176 223.979 89.228 221.199 89.2339 218.405C89.2265 214.423 90.0322 210.482 91.6017 206.823C93.1712 203.164 95.4712 199.865 98.3608 197.127C100.907 194.689 103.864 192.722 107.095 191.316C111.278 189.49 115.807 188.595 120.37 188.694L129.584 188.891C135.281 188.997 140.847 190.619 145.709 193.591C150.571 196.563 154.554 200.777 157.249 205.8C159.913 204.556 162.825 203.936 165.765 203.987H168.145C173.079 204.048 177.795 206.031 181.293 209.514C184.79 212.997 186.794 217.707 186.879 222.643V223.539C186.888 225.233 186.645 226.919 186.158 228.542L195.132 228.738C199.348 228.779 203.378 230.484 206.343 233.484C209.308 236.483 210.968 240.533 210.962 244.752Z" fill="white"/>
<path id="Vector_40" d="M197.097 259.738C196.45 259.771 195.802 259.771 195.154 259.738L86.7011 257.554C82.5374 257.509 78.5557 255.84 75.6032 252.902C72.6508 249.964 70.9607 245.99 70.8927 241.824C70.8907 239.805 71.3002 237.807 72.0961 235.951C72.8919 234.096 74.0576 232.422 75.5217 231.032C71.2639 257.816 99.2124 253.993 99.2124 253.993H169.673L197.097 259.738Z" fill="url(#paint8_linear_151_2)"/>
<path id="Vector_41" d="M98.2517 229.896L90.3912 226.903C89.6177 224.219 89.228 221.439 89.234 218.645C89.2266 214.664 90.0323 210.722 91.6018 207.063C93.1712 203.404 95.4713 200.105 98.3609 197.367C100.907 194.93 103.864 192.962 107.095 191.556C85.3255 210.256 98.2517 229.896 98.2517 229.896Z" fill="url(#paint9_linear_151_2)"/>
</g>
<g id="cloud2">
<path id="Vector_42" d="M497.041 117.781C497.042 119.802 496.631 121.802 495.831 123.658C495.031 125.514 493.86 127.187 492.39 128.573C489.858 130.965 486.599 132.442 483.132 132.768C482.485 132.823 481.835 132.823 481.189 132.768L372.757 130.583C368.629 130.528 364.683 128.874 361.748 125.97C358.812 123.065 357.116 119.136 357.015 115.007C356.992 112.967 357.389 110.945 358.182 109.065C358.974 107.186 360.145 105.49 361.622 104.083C364.642 101.22 368.662 99.6519 372.823 99.7142H376.491C375.728 97.0353 375.339 94.2637 375.334 91.4782C375.328 87.4967 376.134 83.5558 377.704 79.897C379.273 76.2382 381.572 72.9385 384.461 70.1999C387.007 67.7576 389.964 65.7832 393.195 64.3669C397.377 62.5387 401.907 61.6441 406.47 61.7454L415.684 61.942C421.381 62.0472 426.946 63.6719 431.806 66.6482C436.665 69.6245 440.643 73.8447 443.327 78.8728C445.985 77.6109 448.902 76.9898 451.843 77.0596H454.223C459.159 77.1101 463.881 79.0855 467.383 82.5657C470.886 86.0459 472.894 90.7562 472.979 95.6945V96.5902C472.977 98.2923 472.727 99.9851 472.236 101.615L481.21 101.79C485.419 101.841 489.439 103.547 492.401 106.54C495.363 109.532 497.029 113.57 497.041 117.781Z" fill="white"/>
<path id="Vector_43" d="M483.154 132.768C482.507 132.823 481.857 132.823 481.21 132.768L372.779 130.583C368.647 130.533 364.696 128.882 361.756 125.977C358.816 123.072 357.116 119.14 357.015 115.007C356.992 112.967 357.389 110.944 358.182 109.065C358.974 107.186 360.145 105.49 361.622 104.083C357.255 130.889 385.312 127.044 385.312 127.044H455.773L483.154 132.768Z" fill="url(#paint10_linear_151_2)"/>
<path id="Vector_44" d="M384.33 102.926L376.447 99.9327C375.684 97.2538 375.295 94.4822 375.29 91.6966C375.284 87.7151 376.09 83.7743 377.66 80.1155C379.229 76.4567 381.528 73.1569 384.417 70.4184C386.964 67.9761 389.92 66.0017 393.151 64.5854C371.404 83.2858 384.33 102.926 384.33 102.926Z" fill="url(#paint11_linear_151_2)"/>
</g>
<path id="Vector_45" d="M318.916 62.0526C317.652 68.0123 316.328 74.1317 312.932 79.2638C311.694 81.3361 309.904 83.0463 307.749 84.2145C305.557 85.2816 302.774 85.4268 300.725 84.1201C299.7 83.4741 298.578 82.4578 297.464 82.9369C296.656 83.2926 296.394 84.2653 296.282 85.1146C296.001 87.201 296.031 89.3157 296.371 91.3937C296.51 91.9789 296.546 92.5827 296.476 93.1794C296.331 93.7316 296.025 94.2312 295.593 94.6177C295.162 95.0042 294.624 95.2611 294.045 95.3571C292.888 95.5209 291.707 95.3413 290.657 94.8417C289.023 94.1327 287.594 93.0461 286.493 91.6769C285.393 90.3077 284.654 88.6976 284.343 86.9875C284.187 85.8324 284.112 84.6682 284.119 83.5031C283.977 78.3347 283.132 73.188 283.304 68.0268C283.476 62.8656 284.8 57.494 288.413 53.683C290.499 51.6078 292.978 49.9417 295.713 48.7758C299.79 46.8885 304.338 45.5601 308.796 46.2497C310.57 46.5217 312.262 47.1634 313.756 48.1308C315.25 49.0983 316.51 50.3683 317.45 51.8537C319.784 55.3308 319.792 57.9222 318.916 62.0526Z" fill="#FFDAD2"/>
<path id="Vector_46" d="M329.228 49.1544C329.528 46.7484 329.07 44.3104 327.915 42.1647C326.76 40.0189 324.962 38.2672 322.762 37.1427C320.804 36.191 318.624 35.7873 316.51 35.2393C311.559 33.9415 306.808 31.793 301.731 31.3315C296.654 30.8701 290.817 32.6077 288.555 37.0995C288.142 37.9214 287.735 38.9163 286.826 39.1326C286.33 39.1848 285.827 39.1407 285.348 39.0029C281.956 38.4189 278.904 41.2451 277.375 44.2517C274.907 49.1183 274.781 54.7925 275.321 60.1927C275.816 65.1892 277.124 70.5894 281.232 73.6319C281.639 73.9348 282.237 74.2087 282.629 73.8843C282.808 73.7014 282.92 73.4655 282.947 73.2138C283.36 71.3193 283.514 69.3798 283.405 67.4459C283.323 66.0039 283.087 64.4754 283.471 63.055C283.856 61.6347 285.09 60.2864 286.597 60.3297C287.994 60.3297 289.117 61.5986 289.464 62.9253C289.712 64.2759 289.659 65.6627 289.309 66.9916C289.531 67.5324 290.307 66.8835 290.44 66.3211C291.459 61.7933 291.689 56.7248 294.91 53.3433C295.566 54.0052 296.043 54.8152 296.3 55.701C296.781 55.2142 297.394 54.8695 298.067 54.7063C298.74 54.5431 299.446 54.568 300.105 54.7781C301.04 55.1752 301.9 55.7236 302.647 56.4003C310.495 62.3773 327.58 60.6037 329.228 49.1544Z" fill="#3F3D56"/>
</g>
</g>
<defs>
<linearGradient id="paint0_linear_151_2" x1="432.061" y1="346.774" x2="422.159" y2="219.28" gradientUnits="userSpaceOnUse">
<stop offset="0.01"/>
<stop offset="0.13" stop-opacity="0.69"/>
<stop offset="0.25" stop-opacity="0.32"/>
<stop offset="1" stop-opacity="0"/>
</linearGradient>
<linearGradient id="paint1_linear_151_2" x1="3265.29" y1="6006.6" x2="4326.36" y2="5776.61" gradientUnits="userSpaceOnUse">
<stop offset="0.01"/>
<stop offset="0.13" stop-opacity="0.69"/>
<stop offset="0.25" stop-opacity="0.32"/>
<stop offset="1" stop-opacity="0"/>
</linearGradient>
<linearGradient id="paint2_linear_151_2" x1="12886.6" y1="66601.1" x2="-70.7705" y2="-26975.5" gradientUnits="userSpaceOnUse">
<stop offset="0.01"/>
<stop offset="0.13" stop-opacity="0.69"/>
<stop offset="0.25" stop-opacity="0.32"/>
<stop offset="1" stop-opacity="0"/>
</linearGradient>
<linearGradient id="paint3_linear_151_2" x1="23714.2" y1="48087.5" x2="17981.1" y2="-21132.5" gradientUnits="userSpaceOnUse">
<stop offset="0.01"/>
<stop offset="0.13" stop-opacity="0.69"/>
<stop offset="0.25" stop-opacity="0.32"/>
<stop offset="1" stop-opacity="0"/>
</linearGradient>
<linearGradient id="paint4_linear_151_2" x1="-23328.6" y1="3203.92" x2="-23776" y2="3496.24" gradientUnits="userSpaceOnUse">
<stop offset="0.01"/>
<stop offset="0.13" stop-opacity="0.69"/>
<stop offset="0.25" stop-opacity="0.32"/>
<stop offset="1" stop-opacity="0"/>
</linearGradient>
<linearGradient id="paint5_linear_151_2" x1="-32961.6" y1="3618.26" x2="-33091.2" y2="3061.16" gradientUnits="userSpaceOnUse">
<stop offset="0.01"/>
<stop offset="0.13" stop-opacity="0.69"/>
<stop offset="0.25" stop-opacity="0.32"/>
<stop offset="1" stop-opacity="0"/>
</linearGradient>
<linearGradient id="paint6_linear_151_2" x1="-94335.2" y1="7990.25" x2="-100484" y2="17498.3" gradientUnits="userSpaceOnUse">
<stop offset="0.01"/>
<stop offset="0.13" stop-opacity="0.69"/>
<stop offset="0.25" stop-opacity="0.32"/>
<stop offset="1" stop-opacity="0"/>
</linearGradient>
<linearGradient id="paint7_linear_151_2" x1="8019.04" y1="2477.94" x2="7010.11" y2="4894.59" gradientUnits="userSpaceOnUse">
<stop offset="0.01"/>
<stop offset="0.13" stop-opacity="0.69"/>
<stop offset="0.25" stop-opacity="0.32"/>
<stop offset="1" stop-opacity="0"/>
</linearGradient>
<linearGradient id="paint8_linear_151_2" x1="9145.01" y1="4958.7" x2="9115.15" y2="3272.06" gradientUnits="userSpaceOnUse">
<stop offset="0.01"/>
<stop offset="0.13" stop-opacity="0.69"/>
<stop offset="0.25" stop-opacity="0.32"/>
<stop offset="1" stop-opacity="0"/>
</linearGradient>
<linearGradient id="paint9_linear_151_2" x1="569.691" y1="5295.4" x2="1630.8" y2="5065.54" gradientUnits="userSpaceOnUse">
<stop offset="0.01"/>
<stop offset="0.13" stop-opacity="0.69"/>
<stop offset="0.25" stop-opacity="0.32"/>
<stop offset="1" stop-opacity="0"/>
</linearGradient>
<linearGradient id="paint10_linear_151_2" x1="25953.4" y1="3161.37" x2="25923.5" y2="1475.32" gradientUnits="userSpaceOnUse">
<stop offset="0.01"/>
<stop offset="0.13" stop-opacity="0.69"/>
<stop offset="0.25" stop-opacity="0.32"/>
<stop offset="1" stop-opacity="0"/>
</linearGradient>
<linearGradient id="paint11_linear_151_2" x1="3195.88" y1="2940.49" x2="4256.96" y2="2710.49" gradientUnits="userSpaceOnUse">
<stop offset="0.01"/>
<stop offset="0.13" stop-opacity="0.69"/>
<stop offset="0.25" stop-opacity="0.32"/>
<stop offset="1" stop-opacity="0"/>
</linearGradient>
</defs>
</svg>
