<svg width="340" height="254" viewBox="0 0 340 254" fill="none" xmlns="http://www.w3.org/2000/svg">
<g clip-path="url(#clip0_151_2)">
<path opacity="0.48" d="M318.754 13.8877H35.8207C31.8532 13.8877 28.637 17.1063 28.637 21.0766V197.264C28.637 201.234 31.8532 204.453 35.8207 204.453H318.754C322.721 204.453 325.937 201.234 325.937 197.264V21.0766C325.937 17.1063 322.721 13.8877 318.754 13.8877Z" fill="#7253C6"/>
<path opacity="0.18" d="M320.054 218.365C319.837 224.606 318.409 230.959 314.917 236.132C310.519 242.646 303.375 246.678 296.456 250.47L276.839 261.273C268.243 266.012 259.181 270.863 249.381 271C242.446 271.104 235.736 268.815 229.066 266.896C197.915 257.899 165.103 256.638 132.901 258.912C116.406 260.076 99.9923 262.124 83.6504 264.59C70.5753 266.534 54.8835 273 43.0926 265.345C30.2503 256.992 22.3683 243.465 15.1124 230.333C8.79552 218.935 2.3904 207.256 0.303516 194.396C-2.90707 174.525 4.78229 154.115 16.814 137.97C20.4323 133.148 24.3829 128.586 28.637 124.315V197.272C28.6369 199.182 29.3925 201.015 30.7386 202.37C32.0846 203.724 33.9117 204.49 35.8206 204.501H318.746C319.753 209.05 320.192 213.707 320.054 218.365Z" fill="#7253C6"/>
<path opacity="0.18" d="M214.345 13.8958H138.696C141.543 11.7293 144.636 9.90671 147.91 8.46596C153.89 5.85548 160.407 4.6908 166.909 4.22493C183.267 3.04419 199.673 6.6587 214.345 13.8958Z" fill="#7253C6"/>
<path d="M145.125 180.469C145.862 181.446 146.748 182.303 147.75 183.007C149.239 183.811 150.879 184.297 152.566 184.436L178.186 188.3C178.441 188.317 178.687 188.4 178.9 188.541C179.043 188.695 179.15 188.879 179.215 189.078C179.28 189.278 179.301 189.489 179.278 189.698C179.397 194.498 178.749 199.286 177.359 203.883C177.286 204.258 177.105 204.605 176.838 204.879C176.492 205.113 176.083 205.236 175.666 205.232C167.045 205.963 158.385 205.73 149.74 205.497C148.287 205.518 146.836 205.358 145.422 205.023C143.014 204.348 141.048 202.702 139.234 201.007C135.341 197.384 119.585 182.822 118.63 180.846C117.363 178.015 116.343 175.081 115.58 172.075C114.777 169.183 120.644 168.822 120.524 165.818C120.439 163.74 120.689 161.663 121.262 159.665C121.689 157.883 122.575 156.244 123.831 154.91C124.714 154.107 123.349 148.661 124.569 148.597C125.982 153.416 132.371 163.055 135.148 167.183C138.235 171.786 141.565 176.221 145.125 180.469V180.469Z" fill="#7253C6"/>
<path d="M145.125 180.469C145.862 181.446 146.748 182.303 147.75 183.007C149.239 183.811 150.879 184.297 152.566 184.436L178.186 188.3C178.441 188.317 178.687 188.4 178.9 188.541C179.043 188.695 179.15 188.879 179.215 189.078C179.28 189.278 179.301 189.489 179.278 189.698C179.397 194.498 178.749 199.286 177.359 203.883C177.286 204.258 177.105 204.605 176.838 204.879C176.492 205.113 176.083 205.236 175.666 205.232C167.045 205.963 158.385 205.73 149.74 205.497C148.287 205.518 146.836 205.358 145.422 205.023C143.014 204.348 141.048 202.702 139.234 201.007C135.341 197.384 119.585 182.822 118.63 180.846C117.363 178.015 116.343 175.081 115.58 172.075C114.777 169.183 120.644 168.822 120.524 165.818C120.439 163.74 120.689 161.663 121.262 159.665C121.689 157.883 122.575 156.244 123.831 154.91C124.714 154.107 123.349 148.661 124.569 148.597C125.982 153.416 132.371 163.055 135.148 167.183C138.235 171.786 141.565 176.221 145.125 180.469V180.469Z" fill="url(#paint0_linear_151_2)"/>
<path d="M80.2952 139.777C78.5697 141.316 76.96 142.981 75.4793 144.757C71.9316 149.119 69.5718 154.307 67.3726 159.48C61.5213 173.248 56.4245 187.971 57.9415 202.854C57.9702 203.75 58.2123 204.626 58.6478 205.409C59.3386 206.295 60.3091 206.92 61.4009 207.184C64.2181 208.083 67.2281 208.124 70.23 208.148C81.7961 208.252 93.3783 208.356 104.936 207.794C106.726 207.706 108.621 207.569 110.105 206.557C111.19 205.726 112.055 204.643 112.626 203.401C115.732 197.553 116.639 190.79 119.047 184.637C122.258 176.605 131.087 169.304 129.225 160.838C121.262 124.893 83.9392 136.46 80.2952 139.777Z" fill="#7253C6"/>
<path d="M80.2952 139.777C78.5697 141.316 76.96 142.981 75.4793 144.757C71.9316 149.119 69.5718 154.307 67.3726 159.48C61.5213 173.248 56.4245 187.971 57.9415 202.854C57.9702 203.75 58.2123 204.626 58.6478 205.409C59.3386 206.295 60.3091 206.92 61.4009 207.184C64.2181 208.083 67.2281 208.124 70.23 208.148C81.7961 208.252 93.3783 208.356 104.936 207.794C106.726 207.706 108.621 207.569 110.105 206.557C111.19 205.726 112.055 204.643 112.626 203.401C115.732 197.553 116.639 190.79 119.047 184.637C122.258 176.605 131.087 169.304 129.225 160.838C121.262 124.893 83.9392 136.46 80.2952 139.777Z" fill="url(#paint1_linear_151_2)"/>
<path d="M132.564 110.002C131.207 116.596 129.786 123.367 126.142 129.046C124.814 131.339 122.892 133.231 120.58 134.524C118.228 135.705 115.243 135.865 113.043 134.42C111.944 133.705 110.74 132.58 109.544 133.11C108.677 133.504 108.396 134.58 108.276 135.52C107.974 137.829 108.007 140.169 108.372 142.468C108.521 143.115 108.559 143.784 108.484 144.444C108.329 145.055 108 145.608 107.537 146.035C107.074 146.463 106.497 146.747 105.876 146.854C104.634 147.035 103.366 146.836 102.24 146.283C100.487 145.499 98.9529 144.296 97.7719 142.781C96.591 141.266 95.799 139.485 95.4653 137.592C95.2969 136.314 95.2165 135.026 95.2245 133.737C95.072 128.018 94.165 122.323 94.3496 116.612C94.5342 110.901 95.9549 104.957 99.8317 100.74C102.071 98.4442 104.73 96.6007 107.666 95.3106C112.04 93.2222 116.92 91.7523 121.704 92.5154C123.607 92.8163 125.423 93.5264 127.027 94.5969C128.63 95.6674 129.982 97.0727 130.99 98.7163C133.495 102.564 133.503 105.431 132.564 110.002Z" fill="#FFDAD2"/>
<path d="M144.515 95.4713C144.841 92.7909 144.344 90.0748 143.089 87.6843C141.834 85.2938 139.882 83.3423 137.492 82.0895C135.365 81.0293 132.997 80.5795 130.701 79.969C125.324 78.5232 120.163 76.1296 114.648 75.6155C109.134 75.1015 102.793 77.0372 100.337 82.0413C99.8878 82.957 99.4464 84.0655 98.4591 84.3064C97.9197 84.3645 97.3742 84.3154 96.8538 84.1619C93.1697 83.5112 89.8547 86.6599 88.1933 90.0093C85.5124 95.4311 85.376 101.752 85.9619 107.769C86.4997 113.335 87.9203 119.351 92.3831 122.741C92.8245 123.078 93.4747 123.383 93.9001 123.022C94.0948 122.818 94.2163 122.555 94.2452 122.275C94.6941 120.164 94.8614 118.004 94.7429 115.849C94.6546 114.243 94.3977 112.54 94.8151 110.957C95.2325 109.375 96.5729 107.873 98.2103 107.921C99.7273 107.921 100.947 109.335 101.325 110.813C101.593 112.318 101.536 113.862 101.156 115.343C101.397 115.945 102.24 115.223 102.384 114.596C103.492 109.552 103.741 103.905 107.24 100.138C107.952 100.875 108.47 101.778 108.749 102.765C109.272 102.222 109.937 101.838 110.668 101.656C111.399 101.475 112.167 101.502 112.883 101.736C113.898 102.179 114.832 102.79 115.644 103.544C124.168 110.202 142.725 108.226 144.515 95.4713Z" fill="#3F3D56"/>
<path d="M82.7513 148.002C80.0544 149.962 78.7381 153.408 78.6578 156.733C78.5776 160.059 82.0932 181.159 85.4081 187.151C87.9766 191.81 93.3302 203.971 101.461 207.328C103.869 208.324 139.466 207.907 155.985 206.115C155.881 202.204 155.688 198.292 155.431 194.38C155.455 193.864 155.299 193.356 154.99 192.943C154.572 192.509 153.978 189.673 153.384 189.673C143.753 189.714 134.04 192.661 124.409 192.886C123.01 192.977 121.605 192.893 120.227 192.637C119.099 192.356 118.017 191.912 117.016 191.32C109.584 187.111 105.474 178.846 102.569 170.806C100.345 164.605 98.5555 158.187 95.3449 152.396C94.2051 150.332 93.1858 148.323 90.9383 147.416C88.2976 146.348 85.1994 146.227 82.7513 148.002Z" fill="#7253C6"/>
<path d="M82.7513 148.002C80.0544 149.962 78.7381 153.408 78.6578 156.733C78.5776 160.059 82.0932 181.159 85.4081 187.151C87.9766 191.81 93.3302 203.971 101.461 207.328C103.869 208.324 139.466 207.907 155.985 206.115C155.881 202.204 155.688 198.292 155.431 194.38C155.455 193.864 155.299 193.356 154.99 192.943C154.572 192.509 153.978 189.673 153.384 189.673C143.753 189.714 134.04 192.661 124.409 192.886C123.01 192.977 121.605 192.893 120.227 192.637C119.099 192.356 118.017 191.912 117.016 191.32C109.584 187.111 105.474 178.846 102.569 170.806C100.345 164.605 98.5555 158.187 95.3449 152.396C94.2051 150.332 93.1858 148.323 90.9383 147.416C88.2976 146.348 85.1994 146.227 82.7513 148.002Z" fill="url(#paint2_linear_151_2)"/>
<path d="M154.572 188.918C159.573 188.445 165.127 189.561 168.298 193.457C168.631 193.812 168.85 194.26 168.924 194.742C168.92 195.176 168.786 195.598 168.538 195.955C166.668 199.063 162.607 199.802 159.196 201.031C157.421 201.667 155.727 202.508 154.147 203.537C153.258 204.243 152.229 204.752 151.129 205.031C148.721 205.393 146.722 203.24 145.631 201.087C144.379 198.678 142.42 193.73 144.828 191.449C146.795 189.641 152.1 189.143 154.572 188.918Z" fill="#FFDAD2"/>
<path d="M195.981 187.682C196.871 188.188 197.636 188.888 198.22 189.73C198.505 190.156 198.674 190.649 198.711 191.16C198.748 191.671 198.65 192.183 198.429 192.645C198.05 193.215 197.534 193.679 196.928 193.995C192.489 196.637 187.047 197.111 182.552 199.617C181.63 200.288 180.573 200.749 179.454 200.967C178.797 200.981 178.145 200.844 177.549 200.565C176.953 200.287 176.43 199.874 176.019 199.36C175.2 198.338 174.572 197.176 174.165 195.931C168.907 182.115 188.42 182.862 195.981 187.682Z" fill="#FFDAD2"/>
<path d="M68.7852 181.513H89.5817V198.605C89.5817 200.203 88.9475 201.735 87.8186 202.865C86.6896 203.995 85.1585 204.63 83.5619 204.63H74.805C73.2084 204.63 71.6773 203.995 70.5483 202.865C69.4194 201.735 68.7852 200.203 68.7852 198.605V181.513Z" fill="white"/>
<path d="M88.1772 185.657H94.478C95.8085 185.657 97.0845 186.186 98.0253 187.128C98.966 188.069 99.4946 189.346 99.4946 190.678V192.758C99.4946 194.089 98.966 195.366 98.0253 196.308C97.0845 197.249 95.8085 197.778 94.478 197.778H88.1772V185.657Z" stroke="white" stroke-width="3.03781" stroke-miterlimit="10"/>
<path d="M321.964 204.26H40.2513C37.7866 204.26 35.7886 206.258 35.7886 208.722C35.7886 211.186 37.7866 213.184 40.2513 213.184H321.964C324.429 213.184 326.427 211.186 326.427 208.722C326.427 206.258 324.429 204.26 321.964 204.26Z" fill="#7253C6"/>
<path d="M270.178 213.32H110.94V268.59H270.178V213.32Z" fill="#7253C6"/>
<path d="M112.024 213.32H49.4736V268.59H112.024V213.32Z" fill="#7253C6"/>
<path d="M270.185 213.32H111.992V268.59H270.185V213.32Z" fill="url(#paint3_linear_151_2)"/>
<path d="M112.024 213.32H49.4736V268.59H112.024V213.32Z" fill="url(#paint4_linear_151_2)"/>
<path opacity="0.18" d="M325.929 21.0846V56.2658H28.637V21.0846C28.6369 19.1743 29.3925 17.3416 30.7386 15.987C32.0846 14.6325 33.9117 13.8662 35.8207 13.8556H318.746C320.655 13.8662 322.482 14.6325 323.828 15.987C325.174 17.3416 325.929 19.1743 325.929 21.0846Z" fill="#7253C6"/>
<path d="M156.956 204.107H260.048C262.938 204.107 265.281 201.763 265.281 198.87C265.281 195.978 262.938 193.633 260.048 193.633H156.956C154.066 193.633 151.723 195.978 151.723 198.87C151.723 201.763 154.066 204.107 156.956 204.107Z" fill="#7253C6"/>
<path d="M156.956 204.107H260.048C262.938 204.107 265.281 201.763 265.281 198.87C265.281 195.978 262.938 193.633 260.048 193.633H156.956C154.066 193.633 151.723 195.978 151.723 198.87C151.723 201.763 154.066 204.107 156.956 204.107Z" fill="url(#paint5_linear_151_2)"/>
<path d="M192.706 204.123H271.823L292.692 151.167C292.969 150.461 293.069 149.698 292.985 148.945C292.9 148.191 292.634 147.47 292.207 146.843C291.781 146.216 291.208 145.703 290.539 145.348C289.869 144.993 289.123 144.806 288.366 144.805H226.281C223.278 144.811 220.345 145.719 217.864 147.412C215.382 149.105 213.466 151.504 212.363 154.299L192.706 204.123Z" fill="#7253C6"/>
<path d="M196.727 204.18H271.871L291.688 153.874C291.953 153.204 292.05 152.479 291.97 151.763C291.89 151.046 291.637 150.361 291.232 149.765C290.826 149.169 290.282 148.682 289.645 148.345C289.008 148.009 288.299 147.833 287.579 147.833H228.616C225.76 147.832 222.97 148.691 220.608 150.298C218.246 151.906 216.422 154.187 215.373 156.846L196.727 204.18Z" fill="#7253C6"/>
<path d="M196.727 204.18H271.871L291.688 153.874C291.953 153.204 292.05 152.479 291.97 151.763C291.89 151.046 291.637 150.361 291.232 149.765C290.826 149.169 290.282 148.682 289.645 148.345C289.008 148.009 288.299 147.833 287.579 147.833H228.616C225.76 147.832 222.97 148.691 220.608 150.298C218.246 151.906 216.422 154.187 215.373 156.846L196.727 204.18Z" fill="url(#paint6_linear_151_2)"/>
<path opacity="0.51" d="M281.8 128.187H170.553V134.452H281.8V128.187Z" fill="white"/>
<path d="M249.638 117.464H170.553V123.729H249.638V117.464Z" fill="white"/>
<path d="M313.392 117.464H260.449V123.729H313.392V117.464Z" fill="white"/>
<path d="M313.207 77.8003H231.811V83.3667H313.207V77.8003Z" fill="white"/>
<path opacity="0.51" d="M301.842 87.688H214.763V93.2544H301.842V87.688Z" fill="white"/>
<path d="M225.599 77.8003H172.062V83.3667H225.599V77.8003Z" fill="white"/>
<path d="M313.207 97.2785H195.547V102.845H313.207V97.2785Z" fill="white"/>
<path opacity="0.51" d="M189.335 97.2785H172.062V102.845H189.335V97.2785Z" fill="white"/>
<path opacity="0.51" d="M313.207 107.166H235.543V112.733H313.207V107.166Z" fill="white"/>
<path d="M225.599 107.166H172.062V112.733H225.599V107.166Z" fill="white"/>
<path d="M206.488 87.4551H172.062V93.0214H206.488V87.4551Z" fill="white"/>
<path d="M283.437 59.0611H202.041V64.6274H283.437V59.0611Z" fill="white"/>
<path opacity="0.51" d="M272.072 68.9488H184.992V74.5151H272.072V68.9488Z" fill="white"/>
<path d="M195.836 59.0611H142.3V64.6274H195.836V59.0611Z" fill="white"/>
<path d="M282.715 47.5348H201.318V53.1011H282.715V47.5348Z" fill="white"/>
<path d="M195.114 37.0768H141.577V42.6431H195.114V37.0768Z" fill="white"/>
<path d="M195.114 27.5345H141.577V33.1008H195.114V27.5345Z" fill="white"/>
<path d="M176.725 68.7158H142.3V74.2822H176.725V68.7158Z" fill="white"/>
</g>
<defs>
<linearGradient id="paint0_linear_151_2" x1="119.609" y1="170.95" x2="159.949" y2="186.313" gradientUnits="userSpaceOnUse">
<stop offset="0.01"/>
<stop offset="0.12" stop-opacity="0.75"/>
<stop offset="1" stop-opacity="0"/>
</linearGradient>
<linearGradient id="paint1_linear_151_2" x1="9315.27" y1="20253.4" x2="8188.32" y2="13556.4" gradientUnits="userSpaceOnUse">
<stop offset="0.01"/>
<stop offset="0.12" stop-opacity="0.75"/>
<stop offset="1" stop-opacity="0"/>
</linearGradient>
<linearGradient id="paint2_linear_151_2" x1="10468.5" y1="16733.8" x2="11765.9" y2="13046.1" gradientUnits="userSpaceOnUse">
<stop offset="0.01"/>
<stop offset="0.12" stop-opacity="0.75"/>
<stop offset="1" stop-opacity="0"/>
</linearGradient>
<linearGradient id="paint3_linear_151_2" x1="41713.8" y1="11991.3" x2="40818.3" y2="20603" gradientUnits="userSpaceOnUse">
<stop offset="0.01"/>
<stop offset="0.12" stop-opacity="0.75"/>
<stop offset="1" stop-opacity="0"/>
</linearGradient>
<linearGradient id="paint4_linear_151_2" x1="5385.64" y1="12370.5" x2="7442.31" y2="23408.7" gradientUnits="userSpaceOnUse">
<stop offset="0.01"/>
<stop offset="0.12" stop-opacity="0.75"/>
<stop offset="1" stop-opacity="0"/>
</linearGradient>
<linearGradient id="paint5_linear_151_2" x1="30235.6" y1="3001.31" x2="30236.2" y2="2716.07" gradientUnits="userSpaceOnUse">
<stop offset="0.01"/>
<stop offset="0.12" stop-opacity="0.75"/>
<stop offset="1" stop-opacity="0"/>
</linearGradient>
<linearGradient id="paint6_linear_151_2" x1="29510.3" y1="16199.2" x2="29645" y2="10429.7" gradientUnits="userSpaceOnUse">
<stop offset="0.01"/>
<stop offset="0.12" stop-opacity="0.75"/>
<stop offset="1" stop-opacity="0"/>
</linearGradient>
<clipPath id="clip0_151_2">
<rect width="340" height="254" fill="white"/>
</clipPath>
</defs>
</svg>
